<?xml version="1.0" encoding="UTF-8" standalone="no"?>
<!-- Created with Inkscape (http://www.inkscape.org/) -->

<svg
   width="150"
   height="45"
   viewBox="0 0 0.5 0.15"
   version="1.1"
   id="svg300"
   inkscape:version="1.2.2 (b0a8486541, 2022-12-01)"
   sodipodi:docname="Portfolio Button.svg"
   xmlns:inkscape="http://www.inkscape.org/namespaces/inkscape"
   xmlns:sodipodi="http://sodipodi.sourceforge.net/DTD/sodipodi-0.dtd"
   xmlns="http://www.w3.org/2000/svg"
   xmlns:svg="http://www.w3.org/2000/svg">
  <sodipodi:namedview
     id="namedview302"
     pagecolor="#ffffff"
     bordercolor="#000000"
     borderopacity="0.25"
     inkscape:showpageshadow="2"
     inkscape:pageopacity="0.0"
     inkscape:pagecheckerboard="true"
     inkscape:deskcolor="#d1d1d1"
     inkscape:document-units="mm"
     showgrid="false"
     inkscape:zoom="2.587745"
     inkscape:cx="20.287934"
     inkscape:cy="70.331505"
     inkscape:window-width="1720"
     inkscape:window-height="1371"
     inkscape:window-x="20"
     inkscape:window-y="20"
     inkscape:window-maximized="0"
     inkscape:current-layer="layer2" />
  <defs
     id="defs297" />
  <g
     inkscape:label="Rectangle"
     inkscape:groupmode="layer"
     id="layer1">
    <rect
       style="opacity:1;fill:#5e0000;fill-opacity:1;stroke:#ffffff;stroke-width:0.000953482"
       id="rect1180"
       width="0.49904653"
       height="0.14904653"
       x="0.00047674094"
       y="0.00047674094" />
  </g>
  <g
     inkscape:groupmode="layer"
     id="layer2"
     inkscape:label="Content"
     transform="translate(-0.00569951,0.0070003)">
    <g
       id="g556"
       inkscape:label="Logo"
       transform="matrix(0.35275147,0,0,0.35275147,0.38189683,-0.09231398)">
      <g
         id="g583"
         inkscape:label="Badge Background"
         transform="matrix(0.59047767,0,0,0.59047767,0.25129163,0.30636489)">
        <path
           d="m 0,0 c 23.816,13.75 43.302,47.5 43.302,75 v 391.902 c 0,27.5 -19.486,61.25 -43.302,75 l -339.397,195.952 c -23.816,13.75 -62.787,13.75 -86.603,0 L -765.397,541.902 c -23.816,-13.75 -43.301,-47.5 -43.301,-75 V 75 c 0,-27.5 19.485,-61.25 43.301,-75 L -426,-195.951 c 23.816,-13.75 62.787,-13.75 86.603,0 z"
           style="fill:#dc143c;fill-opacity:1;fill-rule:nonzero;stroke:none"
           id="path256"
           transform="matrix(5.8685447e-4,0,0,-5.8685447e-4,0.02040901,0.40982547)"
           inkscape:label="Outer" />
        <path
           d="m 0,0 c 23.815,13.75 43.302,47.5 43.302,75 v 302.85 c 0,27.5 -19.487,61.25 -43.302,75 l -262.275,151.424 c -23.816,13.75 -62.787,13.75 -86.602,0 L -611.152,452.85 c -23.816,-13.75 -43.302,-47.5 -43.302,-75 V 75 c 0,-27.5 19.486,-61.25 43.302,-75 l 262.275,-151.424 c 23.815,-13.75 62.786,-13.75 86.602,0 z"
           style="fill:#af143c;fill-opacity:1;fill-rule:nonzero;stroke:none"
           id="path260"
           inkscape:label="Inner"
           transform="matrix(5.8685447e-4,0,0,-5.8685447e-4,-0.02485038,0.383695)" />
        <path
           d="m 0,0 c -43.336,0 -76.273,10.725 -98.8,32.175 -22.536,21.45 -36.186,50.589 -40.95,87.425 -2.6,21.226 7.15,31.85 29.25,31.85 9.1,0 15.925,-2.387 20.475,-7.15 4.55,-4.774 8.338,-12.137 11.375,-22.1 C -71.723,79.727 -45.5,58.5 0,58.5 c 27.727,0 48.313,7.576 61.75,22.75 13.427,15.163 20.15,38.563 20.15,70.2 v 282.1 c 0,9.963 2.702,17.652 8.125,23.075 5.413,5.413 12.889,8.125 22.425,8.125 19.927,0 29.9,-10.4 29.9,-31.2 V 151.45 C 142.35,105.514 131.188,68.788 108.875,41.275 86.552,13.752 50.264,0 0,0"
           style="display:inline;fill:#ffffff;fill-opacity:1;fill-rule:nonzero;stroke:none"
           id="path272"
           transform="matrix(5.8685447e-4,0,0,-5.8685447e-4,-0.21276018,0.38866897)"
           inkscape:label="J" />
      </g>
    </g>
    <g
       aria-label="Portfolio"
       id="text1202"
       style="font-weight:300;font-size:0.0888889px;font-family:'Zen Maru Gothic';-inkscape-font-specification:'Zen Maru Gothic Light';text-align:center;text-anchor:middle;fill:#ffffff;stroke:#ffffff;stroke-width:0.000666666"
       inkscape:label="Portfolio">
      <path
         d="m 0.03638123,0.09968858 q -0.0050667,0 -0.0050667,-0.0052444 V 0.0427108 q 0,-0.0052444 0.0052444,-0.0052444 h 0.0232 q 0.0087111,0 0.01377778,0.0040889 0.0051556,0.0040889 0.0051556,0.01377778 0,0.0096889 -0.0051556,0.01386667 -0.0050667,0.0041778 -0.01377778,0.0041778 H 0.04153679 v 0.02106667 q 0,0.0052444 -0.0051556,0.0052444 z m 0.0051556,-0.03591111 h 0.0168 q 0.0045333,0 0.0070222,-0.0019556 0.0024889,-0.0019556 0.0024889,-0.0064889 0,-0.0044444 -0.0024889,-0.0064 -0.0024889,-0.0019556 -0.0070222,-0.0019556 h -0.0168 z"
         style="font-weight:bold;-inkscape-font-specification:'Zen Maru Gothic Bold';stroke:none"
         id="path439" />
      <path
         d="m 0.10224772,0.10066636 q -0.0058667,0 -0.01057778,-0.0027556 -0.0046222,-0.0028444 -0.0073778,-0.0078222 -0.0026667,-0.0050667 -0.0026667,-0.01182222 0,-0.0067556 0.0026667,-0.01173334 0.0027555,-0.0050667 0.0073778,-0.0078222 0.0047111,-0.0028444 0.01057778,-0.0028444 0.006044,0 0.0106667,0.0028444 0.004711,0.0027556 0.007378,0.0078222 0.002667,0.0049778 0.002667,0.01173334 0,0.0067556 -0.002667,0.01182222 -0.002667,0.0049778 -0.007378,0.0078222 -0.004622,0.0027556 -0.0106667,0.0027556 z m 0,-0.0090667 q 0.004711,0 0.007644,-0.0034667 0.003022,-0.0034667 0.003022,-0.0098667 0,-0.0064 -0.003022,-0.0098667 -0.002933,-0.0034667 -0.007644,-0.0034667 -0.0046222,0 -0.0075555,0.0034667 -0.0029333,0.0034667 -0.0029333,0.0098667 0,0.0064 0.0029333,0.0098667 0.0029333,0.0034667 0.0075555,0.0034667 z"
         style="font-weight:bold;-inkscape-font-specification:'Zen Maru Gothic Bold';stroke:none"
         id="path441" />
      <path
         d="m 0.13664762,0.09968858 q -0.005067,0 -0.005067,-0.0052444 V 0.06217747 q 0,-0.0052444 0.005244,-0.0052444 0.001778,0 0.003111,8.8889e-4 0.001333,8e-4 0.001333,0.0031111 v 0.0020444 q 0.0016,-0.0032 0.004978,-0.0051556 0.003467,-0.0019556 0.007289,-0.0019556 0.002756,0 0.004178,0.0015111 0.001511,0.0014222 0.001511,0.0039111 0,0.0023111 -0.001156,0.0033778 -0.001156,0.0010667 -0.002667,8.8889e-4 -7.1112e-4,-8.889e-5 -0.001511,-8.889e-5 -8e-4,-8.889e-5 -0.001778,-8.889e-5 -0.004356,0 -0.007467,0.0028444 -0.003022,0.0028444 -0.003022,0.008 v 0.01822223 q 0,0.0052444 -0.004978,0.0052444 z"
         style="font-weight:bold;-inkscape-font-specification:'Zen Maru Gothic Bold';stroke:none"
         id="path443" />
      <path
         d="m 0.18304762,0.10066636 q -0.006311,0 -0.009689,-0.0023111 -0.003289,-0.0023111 -0.003289,-0.0092445 V 0.06555525 h -0.002933 q -0.005244,0 -0.005244,-0.0043556 0,-0.0020445 0.001067,-0.0031111 0.001156,-0.0011556 0.004089,-0.0011556 h 0.003022 v -0.0097778 q 0,-0.0052444 0.005067,-0.0052444 0.004889,0 0.004889,0.0052444 v 0.0097778 h 0.006578 q 0.005244,0 0.005244,0.0042667 0,0.0043556 -0.005156,0.0043556 h -0.006667 v 0.02097778 q 0,0.0030222 0.001422,0.0040889 0.001511,0.0010667 0.004267,0.0010667 0.002844,0 0.004444,7.1111e-4 0.001689,6.2222e-4 0.001689,0.0033778 0,0.0022222 -0.001333,0.0032889 -0.001244,9.7778e-4 -0.003289,0.0012444 -0.001956,3.5556e-4 -0.004178,3.5556e-4 z"
         style="font-weight:bold;-inkscape-font-specification:'Zen Maru Gothic Bold';stroke:none"
         id="path445" />
      <path
         d="m 0.2092697,0.09968858 q -0.005067,0 -0.005067,-0.0052444 V 0.06555525 h -0.002844 q -0.005244,0 -0.005244,-0.0043556 0,-0.0042667 0.003644,-0.0042667 h 0.004444 v -0.0076444 q 0,-0.0079111 0.003644,-0.01093334 0.003644,-0.0030222 0.0104,-0.0030222 0.003378,0 0.0056,8.8889e-4 0.002311,8e-4 0.002222,0.0037333 0,0.0018667 -8e-4,0.0031111 -8e-4,0.0012444 -0.003289,0.0012444 -5.3334e-4,0 -0.001244,-8.889e-5 -7.1111e-4,-8.889e-5 -0.001244,-8.889e-5 -0.005333,0 -0.005333,0.0064 v 0.0064 h 0.006667 q 0.005244,0 0.005244,0.0042667 0,0.0043556 -0.005156,0.0043556 h -0.006756 v 0.02888889 q 0,0.0052444 -0.004889,0.0052444 z"
         style="font-weight:bold;-inkscape-font-specification:'Zen Maru Gothic Bold';stroke:none"
         id="path447" />
      <path
         d="m 0.25095854,0.10066636 q -0.005867,0 -0.0105778,-0.0027556 -0.004622,-0.0028444 -0.007378,-0.0078222 -0.002667,-0.0050667 -0.002667,-0.01182222 0,-0.0067556 0.002667,-0.01173334 0.002756,-0.0050667 0.007378,-0.0078222 0.004711,-0.0028444 0.0105778,-0.0028444 0.006044,0 0.0106667,0.0028444 0.004711,0.0027556 0.007378,0.0078222 0.002667,0.0049778 0.002667,0.01173334 0,0.0067556 -0.002667,0.01182222 -0.002667,0.0049778 -0.007378,0.0078222 -0.004622,0.0027556 -0.0106667,0.0027556 z m 0,-0.0090667 q 0.004711,0 0.007644,-0.0034667 0.003022,-0.0034667 0.003022,-0.0098667 0,-0.0064 -0.003022,-0.0098667 -0.002933,-0.0034667 -0.007644,-0.0034667 -0.004622,0 -0.007556,0.0034667 -0.002933,0.0034667 -0.002933,0.0098667 0,0.0064 0.002933,0.0098667 0.002933,0.0034667 0.007556,0.0034667 z"
         style="font-weight:bold;-inkscape-font-specification:'Zen Maru Gothic Bold';stroke:none"
         id="path449" />
      <path
         d="m 0.28535844,0.09968858 q -0.005067,0 -0.005067,-0.0052444 v -0.0528889 q 0,-0.0052444 0.005067,-0.0052444 0.004978,0 0.004978,0.0052444 v 0.0528889 q 0,0.0052444 -0.004978,0.0052444 z"
         style="font-weight:bold;-inkscape-font-specification:'Zen Maru Gothic Bold';stroke:none"
         id="path451" />
      <path
         d="m 0.30758055,0.09968858 q -0.004978,0 -0.004978,-0.0052444 V 0.06217747 q 0,-0.0052444 0.004978,-0.0052444 0.004978,0 0.004978,0.0052444 v 0.03226667 q 0,0.0052444 -0.004978,0.0052444 z M 0.30749166,0.0499108 q -0.002578,0 -0.004444,-0.0018667 -0.001867,-0.0018667 -0.001867,-0.0044444 0,-0.0025778 0.001867,-0.0044445 0.001867,-0.0018667 0.004444,-0.0018667 0.002578,0 0.004444,0.0018667 0.001867,0.0018667 0.001867,0.0044445 0,0.0025778 -0.001867,0.0044444 -0.001867,0.0018667 -0.004444,0.0018667 z"
         style="font-weight:bold;-inkscape-font-specification:'Zen Maru Gothic Bold';stroke:none"
         id="path453" />
      <path
         d="m 0.3430472,0.10066636 q -0.005867,0 -0.0105778,-0.0027556 -0.004622,-0.0028444 -0.007378,-0.0078222 -0.002667,-0.0050667 -0.002667,-0.01182222 0,-0.0067556 0.002667,-0.01173334 0.002756,-0.0050667 0.007378,-0.0078222 0.004711,-0.0028444 0.0105778,-0.0028444 0.006044,0 0.0106667,0.0028444 0.004711,0.0027556 0.007378,0.0078222 0.002667,0.0049778 0.002667,0.01173334 0,0.0067556 -0.002667,0.01182222 -0.002667,0.0049778 -0.007378,0.0078222 -0.004622,0.0027556 -0.0106667,0.0027556 z m 0,-0.0090667 q 0.004711,0 0.007644,-0.0034667 0.003022,-0.0034667 0.003022,-0.0098667 0,-0.0064 -0.003022,-0.0098667 -0.002933,-0.0034667 -0.007644,-0.0034667 -0.004622,0 -0.007556,0.0034667 -0.002933,0.0034667 -0.002933,0.0098667 0,0.0064 0.002933,0.0098667 0.002933,0.0034667 0.007556,0.0034667 z"
         style="font-weight:bold;-inkscape-font-specification:'Zen Maru Gothic Bold';stroke:none"
         id="path455" />
    </g>
  </g>
</svg>
