<?xml version="1.0" encoding="UTF-8" standalone="no"?>
<svg
   viewBox="0 0 58.319 59.567001"
   xml:space="preserve"
   version="1.1"
   id="svg10"
   width="58.319"
   height="59.567001"
   xmlns="http://www.w3.org/2000/svg"
   xmlns:svg="http://www.w3.org/2000/svg"><defs
   id="defs14" />
    <g
   fill="#f7981f"
   id="g8"
   transform="translate(-6,-5.278)">
        <path
   d="m 30.879,61.843 a 3.003,3.003 0 0 0 3.002,3.002 h 27.436 a 3.003,3.003 0 0 0 3.002,-3.002 V 33.738 A 3.002,3.002 0 0 0 61.317,30.736 H 33.881 a 3.003,3.003 0 0 0 -3.002,3.002 z"
   id="path2" />
        <path
   d="m 28.232,31.124 a 3.003,3.003 0 0 1 3.002,-3.002 H 51.8 V 20.977 A 3.002,3.002 0 0 0 48.799,17.975 H 21.365 a 3.002,3.002 0 0 0 -3.002,3.002 v 28.104 a 3.002,3.002 0 0 0 3.002,3.002 h 6.867 z"
   id="path4" />
        <path
   d="m 15.87,18.427 a 3.002,3.002 0 0 1 3.002,-3.002 H 39.438 V 8.28 A 3.003,3.003 0 0 0 36.436,5.278 H 9.002 A 3.002,3.002 0 0 0 6,8.28 v 28.105 a 3.003,3.003 0 0 0 3.002,3.002 h 6.868 z"
   id="path6" />
    </g>
</svg>
