<?xml version="1.0" encoding="UTF-8" standalone="no"?>
<svg
   width="256"
   height="360"
   viewBox="0 0 256 360"
   version="1.1"
   preserveAspectRatio="xMidYMid"
   id="svg202"
   sodipodi:docname="gin-seeklogo.com.svg"
   xmlns:inkscape="http://www.inkscape.org/namespaces/inkscape"
   xmlns:sodipodi="http://sodipodi.sourceforge.net/DTD/sodipodi-0.dtd"
   xmlns="http://www.w3.org/2000/svg"
   xmlns:svg="http://www.w3.org/2000/svg">
  <defs
     id="defs206" />
  <sodipodi:namedview
     id="namedview204"
     pagecolor="#ffffff"
     bordercolor="#000000"
     borderopacity="0.25"
     inkscape:showpageshadow="2"
     inkscape:pageopacity="0.0"
     inkscape:pagecheckerboard="0"
     inkscape:deskcolor="#d1d1d1"
     showgrid="false" />
  <title
     id="title184">Gin</title>
  <g
     id="g200">
    <path
       d="m 125.88328,359.54271 c -29.818229,-1.27601 -50.549738,-5.24133 -67.095177,-12.83333 -2.415049,-1.10815 -2.052738,-0.36647 -4.657394,-9.53441 -4.536432,-15.96744 -7.984488,-30.43449 -11.67833,-48.99892 -1.872525,-9.4109 -2.749417,-13.34496 -7.073684,-31.7352 -7.759474,-32.99948 -10.706536,-48.17272 -12.402269,-63.8543 -0.429456,-3.97146 0.343675,-9.40185 1.558414,-10.94614 0.719058,-0.91413 0.733657,-3.24798 0.02148,-3.43422 -0.415491,-0.10865 -0.518499,-0.45954 -0.670463,-2.28384 -0.126163,-1.51457 -0.322631,-2.33736 -0.660767,-2.76723 -0.326236,-0.41474 -0.481218,-1.02664 -0.481218,-1.89993 0,-0.70848 -0.115168,-1.35933 -0.255929,-1.44633 -0.153768,-0.095 -0.255929,-1.83178 -0.255929,-4.35079 0,-2.51901 -0.102162,-4.25576 -0.255929,-4.35079 -0.140761,-0.087 -0.255929,0.0722 -0.255929,0.35368 0,3.15469 -2.267103,-2.59093 -3.588663,-9.09491 -3.391484,-16.69097 -8.9577028,-33.27696 -7.677227,-22.87628 0.450481,3.65904 1.280618,7.2565 3.663925,15.87787 2.799857,10.1282 4.075337,17.29944 3.505909,19.71158 -0.813729,3.44701 -6.071889,-17.25371 -9.1024249,-35.83511 C 7.7526044,124.52862 6.5978187,117.44578 5.9554875,113.50447 4.5202369,104.69786 3.1851856,98.084245 1.3610825,90.744586 -0.46476749,83.3979 -0.41317699,82.206238 1.8558332,79.316612 6.532966,73.360196 20.25785,68.729585 21.741494,72.607429 c 1.016876,2.657839 -1.980185,4.499015 -10.130533,6.223463 -7.0639662,1.494592 -7.7173226,2.563211 -3.8825918,6.350309 3.8338668,3.786242 26.0709878,7.170238 52.3811468,7.971245 46.598334,1.418676 76.139984,1.792204 84.456584,1.067877 2.04103,-0.177764 4.94295,-0.390333 6.44869,-0.472379 2.73772,-0.149176 2.73772,-0.149176 2.61317,-0.817378 -0.0943,-0.506062 0.12381,-0.978711 0.89897,-1.947848 0.56293,-0.703805 1.40323,-1.797902 1.86734,-2.431326 1.57869,-2.154628 4.22991,-2.975902 5.32953,-1.650937 1.37571,1.657624 0.1607,5.494275 -2.11216,6.669616 -1.04951,0.542726 -0.74821,0.709778 1.67445,0.92838 1.14994,0.103761 2.75043,0.25823 3.55666,0.343265 2.43895,0.257244 4.2985,-0.623791 3.27383,-1.551107 -2.25734,-2.042864 1.9903,-6.163406 8.56862,-8.31223 0.98532,-0.321861 1.90091,-0.686115 2.03463,-0.809455 0.13373,-0.12334 0.42553,-0.224255 0.64845,-0.224255 0.8391,0 3.24025,-1.861037 5.90996,-4.58058 1.51916,-1.547523 3.22542,-3.106147 3.79167,-3.463608 0.56625,-0.357461 1.15373,-0.881944 1.30549,-1.165521 0.4603,-0.860078 -0.43656,-0.628332 -2.42933,0.627727 -0.98532,0.621061 -2.36734,1.4811 -3.07114,1.911196 -1.46119,0.892937 -4.71284,3.048968 -7.84071,5.198848 -1.17729,0.809184 -2.42845,1.666285 -2.78035,1.904671 -0.3519,0.238382 -0.84889,0.608704 -1.10443,0.822937 -0.56593,0.474462 -3.19241,0.588368 -4.65397,0.201833 -3.79523,-1.00371 -4.06805,-4.335676 -0.82879,-10.12203 1.41821,-2.533385 5.32636,-7.714932 5.81893,-7.714932 0.12241,0 0.54689,-0.480906 0.94329,-1.06868 0.71741,-1.063764 1.17184,-1.407254 3.45536,-2.61181 1.6422,-0.866258 2.60174,-0.96044 2.86248,-0.280964 0.15489,0.403646 -0.99605,2.936584 -2.29265,5.045549 -2.71785,4.420683 -2.95486,4.870363 -2.7008,5.124416 0.36256,0.362567 3.12956,-1.297711 3.53953,-2.123822 0.17186,-0.346305 0.63169,-1.317576 1.02183,-2.15838 2.63947,-5.688325 8.95702,-6.248469 12.84302,-1.138721 1.02712,1.350574 1.31318,1.503563 1.3188,0.705331 0.0176,-2.497712 3.49526,-4.547038 7.73765,-4.559681 1.75849,-0.0052 1.87406,-0.293 0.35125,-0.874566 -2.08159,-0.794967 -2.20093,-1.192627 -0.82871,-2.761277 1.90236,-2.174688 0.99972,-2.59735 -2.61429,-1.224137 -3.48695,1.32494 -6.87648,2.042242 -9.19441,1.945752 -1.2308,-0.05124 -2.51437,0.01044 -2.85237,0.137083 -0.33801,0.126634 -1.2407,0.283521 -2.00599,0.348642 -0.76528,0.06512 -1.48453,0.175946 -1.59833,0.246278 -0.1138,0.07033 -0.76588,0.05157 -1.44906,-0.0417 -3.79846,-0.51854 -3.44577,-3.811974 1.31081,-12.240457 0.63551,-1.126087 1.51247,-2.796025 1.94881,-3.710971 0.43634,-0.914946 2.20974,-4.542741 3.94088,-8.061765 1.73114,-3.519024 3.62313,-7.434739 4.20441,-8.701588 0.58129,-1.266848 1.34216,-2.850468 1.69084,-3.519157 0.34867,-0.668689 0.63395,-1.33147 0.63395,-1.472847 0,-0.141378 0.29492,-0.861118 0.65538,-1.599423 2.3267,-4.765635 6.03703,-16.5294437 5.58498,-17.7074802 -0.0917,-0.239027 -0.0149,-0.3982453 0.19225,-0.3982453 0.18979,0 0.92192,-0.3839266 1.62694,-0.85317 0.70502,-0.4692433 1.59556,-1.0457632 1.97897,-1.2811549 0.57188,-0.351107 0.67108,-0.5581051 0.55222,-1.1523694 -0.66017,-3.3008506 5.43521,-1.19093152 13.01943,4.5066783 11.15625,8.3810965 21.05954,22.5434935 29.33457,41.9505015 7.35429,17.247665 9.28533,46.499106 4.51642,68.414585 -3.34339,15.36447 -5.61898,38.94382 -8.06427,83.56083 -1.55687,28.40685 -2.44673,41.22585 -3.73085,53.7451 -0.34651,3.37826 -0.79986,8.44566 -1.00744,11.26088 -1.04222,14.13453 -2.61285,27.25767 -5.28379,44.14776 -0.91308,5.77404 -1.04111,7.13085 -1.11083,11.77274 -0.26287,17.50127 -6.67833,27.43971 -18.84422,29.19234 -1.1795,0.16994 -3.64173,0.74851 -5.47163,1.28573 -14.83268,4.35464 -30.65658,6.66381 -52.33749,7.63757 -17.58225,0.78969 -22.66725,0.86918 -31.47927,0.4921 z M 65.482738,333.07215 c -3.157307,-12.87367 -5.004249,-18.98564 -7.225217,-23.90992 -2.377394,-5.27109 -2.917596,-5.96924 -2.623948,-3.39106 1.349764,11.85062 4.60275,22.84098 9.897416,33.43887 2.79184,5.58821 2.790655,5.43752 -0.04825,-6.13789 z m -5.534532,8.52909 c 0.921463,-3.43844 -0.552249,-10.67091 -4.84338,-23.76967 -2.447598,-7.47131 -4.251289,-13.96904 -4.590991,-16.53888 -0.222651,-1.68432 -0.454039,-1.82664 -1.412101,-0.86859 -1.536703,1.5367 -1.072095,4.71638 2.388798,16.34841 0.931254,3.12994 1.825022,6.70015 1.986147,7.9338 0.946876,7.24973 5.718192,19.70597 6.471527,16.89493 z m 86.779914,-38.11378 c 4.66992,-3.09321 4.05721,-12.10892 -1.0183,-14.98362 -4.56916,-2.5879 -7.02303,3.05139 -5.08303,11.68142 0.87022,3.87111 3.27636,5.1734 6.10133,3.3022 z m -13.76554,-0.68176 c 3.48235,-1.78555 4.63894,-7.74357 2.45699,-12.6569 -2.15119,-4.84402 -6.46653,-2.38917 -7.24416,4.12094 -0.11249,0.9417 -0.37804,2.81791 -0.59013,4.1694 -0.76024,4.84448 1.25448,6.4805 5.3773,4.36656 z m -84.738117,-8.90787 c 0.558237,-4.46796 -0.599632,-10.92387 -4.345461,-24.22896 -1.062599,-3.77434 -2.287773,-8.66898 -2.722606,-10.87698 -1.421791,-7.21964 -3.574402,-10.73766 -2.534739,-4.14255 0.504658,3.20132 3.353661,17.81046 3.967842,20.34636 0.340918,1.40761 0.916827,4.95824 1.279801,7.89029 0.903929,7.30179 1.696876,10.19491 3.256147,11.88023 0.772888,0.83538 0.898551,0.73608 1.099016,-0.86839 z m 59.231317,-24.69454 c 19.49538,-4.46732 25.7817,-28.84629 10.39432,-40.31021 -9.92165,-7.39185 -16.13512,-7.92901 -31.635821,-2.73495 -3.167123,1.06126 -6.018356,2.09314 -6.336074,2.29307 -1.129538,0.71078 -2.87704,3.23114 -2.877211,4.1497 -8.9e-5,0.47147 -0.452283,1.97861 -1.004877,3.34921 -7.322489,18.16196 11.320681,37.86796 31.459663,33.25318 z M 82.759236,255.25143 c -7.669021,-1.14529 -9.321872,-7.67521 -3.451822,-13.6371 4.264139,-4.33086 9.229367,-4.70579 12.874549,-0.97216 7.212787,7.38778 1.502695,16.24087 -9.422727,14.60926 z m 97.235744,10.36253 c 13.39125,-2.24947 21.78777,-17.64456 16.26568,-29.82328 -12.93014,-28.51681 -59.36755,-14.81786 -49.18342,14.50902 4.35418,12.53858 16.31512,18.10314 32.91774,15.31426 z m -26.08747,-11.83509 c -5.96912,-1.46975 -7.90528,-6.92472 -4.70677,-13.26092 3.99897,-7.92192 12.55549,-7.82845 16.77671,0.18326 2.54953,4.83888 1.97156,6.45138 -2.16297,6.03457 -3.71854,-0.37486 -4.9386,0.15671 -3.12076,1.3597 1.32461,0.87658 3.01863,2.40216 3.34542,3.01276 1.02112,1.90799 -5.8612,3.72212 -10.13163,2.67063 z M 90.979181,147.96963 c 1.000867,-0.14533 1.710991,-0.48976 3.010304,-1.46008 0.935244,-0.69843 2.418834,-1.7971 3.296863,-2.44149 7.916142,-5.80967 10.462452,-7.84561 13.369152,-10.68943 0.98533,-0.96401 3.86453,-3.56126 6.39823,-5.77165 2.5337,-2.2104 5.07957,-4.44502 5.6575,-4.96584 0.57793,-0.52082 1.61444,-1.44585 2.30336,-2.05563 2.16146,-1.91316 5.98854,-5.41141 8.93046,-8.16315 3.45329,-3.23006 10.91787,-10.77994 10.86626,-10.99017 -0.12422,-0.50229 -2.32589,-0.92253 -4.9799,-0.95046 -2.75519,-0.029 -2.81477,-0.042 -2.79426,-0.6114 0.0278,-0.772092 0.06,-0.768023 -7.4429,-0.941266 C 69.574002,97.543177 29.356431,95.473538 7.6197713,92.652125 5.0881178,92.323517 4.8288415,92.331513 4.8288415,92.738189 c 0,0.711662 2.0721838,2.680161 3.7100693,3.524427 2.0610502,1.062395 2.0921192,1.527863 0.1258915,1.886115 -2.1080221,0.384088 -2.044458,0.135102 -1.2168413,4.766499 3.320089,18.57943 8.201123,22.78525 18.50552,15.94558 5.926331,-3.93367 43.900873,-8.00792 68.962385,-7.3989 4.301686,0.10453 7.267694,0.0599 8.701584,-0.13106 1.19647,-0.1593 2.83176,-0.34998 3.63398,-0.42371 0.80221,-0.0737 1.5937,-0.29689 1.75886,-0.49589 0.16515,-0.199 0.73935,-0.36182 1.276,-0.36182 0.53664,0 1.29992,-0.13317 1.69618,-0.29594 2.71278,-1.1143 23.37019,-1.54224 23.37019,-0.48413 0,0.1857 -1.06297,1.19889 -3.5286,3.36339 -0.57626,0.50588 -3.55949,2.80813 -6.62939,5.1161 -4.65507,3.4997 -7.76432,5.91566 -9.16466,7.12114 -0.14076,0.12117 -1.67999,1.7359 -3.42051,3.58827 -7.15807,7.61812 -14.633283,12.86083 -21.057501,14.76862 -0.898416,0.2668 -1.262432,0.52865 -1.467771,1.05583 -0.345942,0.88815 -1.462453,2.87467 -1.812354,3.22457 -0.582423,0.58242 -0.29751,0.99597 0.565677,0.82108 0.457473,-0.0927 1.421207,-0.25412 2.14163,-0.35873 z m 12.254379,-2.34606 c 0.0964,-0.15593 2.03682,-0.25593 4.96591,-0.25593 5.67298,0 10.26187,-0.24628 10.26187,-0.55075 0,-0.11937 -0.16453,-0.21704 -0.36561,-0.21704 -1.09002,0 -1.4304,-1.27269 -0.74259,-2.77654 0.85337,-1.86584 1.64937,-2.76284 10.36794,-11.68345 3.43933,-3.51902 6.71886,-6.97406 7.28785,-7.67787 4.92243,-6.08871 8.89204,-11.88335 8.44613,-12.32926 -0.19227,-0.19227 -3.97031,3.34341 -4.54765,4.25591 -0.22667,0.35828 -1.32077,1.55014 -2.43132,2.64859 -2.17717,2.15345 -2.3037,2.29391 -6.38524,7.0883 -1.49791,1.75951 -3.04979,3.54462 -3.44864,3.9669 -0.39885,0.42228 -1.29413,1.40121 -1.98951,2.1754 -2.28793,2.5472 -6.48855,6.61483 -8.36676,8.10185 -4.21909,3.34038 -10.73662,6.63259 -12.79645,6.46391 -0.69501,-0.0569 -2.1754,0.29926 -2.1754,0.52339 0,0.53975 1.61225,0.76367 1.91947,0.26659 z m 58.70295,-1.00708 c 0.32599,-0.49066 0.60079,-0.52877 3.83894,-0.53235 4.75272,-0.005 7.2961,-0.99424 5.53105,-2.15075 -0.35978,-0.23574 -0.63672,-0.66383 -0.63814,-0.98643 -0.009,-1.98323 -1.4739,-3.62076 -2.28469,-2.55339 -2.35795,3.10414 -2.79788,3.56311 -3.98633,4.15885 -7.71769,3.8687 -12.30108,-5.0269 -8.44244,-16.38537 3.32787,-9.79605 3.59409,-10.6822 4.38082,-14.58204 0.38105,-1.88887 0.028,-5.60276 -0.54184,-5.69906 -1.20206,-0.20316 -6.75442,17.37661 -9.07489,28.73267 -0.9992,4.88995 -1.02011,4.94113 -2.36818,5.79485 -4.73448,2.99832 -6.63403,1.61289 -5.13803,-3.74742 0.46823,-1.67772 1.96835,-5.83316 2.65521,-7.35517 0.26929,-0.5967 0.48961,-1.15007 0.48961,-1.2297 0,-0.0796 0.23663,-0.68553 0.52584,-1.34642 3.36811,-7.69674 4.16064,-10.50155 3.05717,-10.81951 -3.18198,-0.91686 -7.55444,1.52716 -9.46357,5.28973 -0.20794,0.40984 -0.63772,1.17141 -0.95504,1.69238 -0.72239,1.18597 -1.97998,3.51659 -4.11516,7.6264 -2.90997,5.60112 -3.55126,6.66904 -5.51294,9.1805 -2.07942,2.6622 -4.24248,3.96437 -7.72159,4.64844 -2.4869,0.48898 -2.44603,0.61516 0.25593,0.79023 7.01815,0.45474 39.14076,0.0267 39.50827,-0.52644 z m -28.83461,-1.30846 c -1.09583,-0.4398 -1.65809,-2.72846 -1.0472,-4.26259 1.20691,-3.03089 2.82867,-5.55364 8.43968,-13.12841 1.1991,-1.61875 2.61697,-3.6054 3.15083,-4.41477 2.8467,-4.3158 3.27273,3.31212 0.53961,9.66132 -2.92012,6.7836 -7.71555,12.57507 -10.26437,12.39633 -0.12723,-0.009 -0.49558,-0.12227 -0.81855,-0.25188 z m 67.97063,-1.03167 c 1.42534,-0.15833 2.65753,-0.4312 2.88926,-0.63983 0.27913,-0.25129 1.04594,-0.36375 2.4802,-0.36375 1.14189,0 2.14734,-0.11517 2.23434,-0.25593 0.087,-0.14076 0.36828,-0.25593 0.62508,-0.25593 0.42723,0 0.92732,-0.96424 0.64599,-1.24557 -0.0639,-0.0639 -0.72158,0.0189 -1.46144,0.184 -1.30839,0.29202 -2.43127,0.46511 -4.80025,0.73997 -3.14372,0.36474 -11.90775,0.12002 -14.32048,-0.39988 -0.8471,-0.18254 -0.89606,-0.25607 -1.16659,-1.752 -0.48809,-2.69886 -1.91778,-3.96659 -3.74914,-3.3244 -1.81065,0.63493 -1.91287,0.968 -0.47378,1.5438 1.04484,0.41807 2.05089,1.24506 2.05089,1.68588 0,0.46854 -1.58974,2.05634 -2.05884,2.05634 -0.25864,0 -0.53446,0.1039 -0.61294,0.23089 -0.17317,0.28018 -3.1823,1.21299 -4.68618,1.45268 -2.82731,0.45061 -0.25716,0.61979 9.41547,0.61979 5.80621,0 11.61456,-0.12345 12.98841,-0.27606 z m 16.63215,-13.91728 c 1.37922,-0.23437 2.87235,-1.55695 2.87235,-2.54428 0,-0.73857 -0.58236,-1.12885 -1.09096,-0.73113 -0.31645,0.24747 -2.27885,0.76464 -3.00391,0.79166 -0.21114,0.008 -0.86973,0.0927 -1.46352,0.18858 -3.92586,0.63374 -14.84575,-2.82754 -19.95267,-6.32442 -0.5884,-0.40289 -1.13663,-0.73254 -1.21828,-0.73254 -0.23868,0 -2.76614,-1.79598 -3.53427,-2.5114 -2.64719,-2.46555 2.30191,-2.70393 8.76557,-0.4222 4.0868,1.44268 4.62433,1.65103 5.72205,2.2179 1.69328,0.87443 1.8904,0.95967 3.69598,1.59829 4.15784,1.47062 4.50289,1.11927 1.20302,-1.22496 -4.91457,-3.49132 -10.14339,-5.65434 -12.10426,-5.00719 -2.12544,0.70146 -6.98121,-0.56512 -11.56884,-3.01761 -8.217,-4.3927 -11.32527,-5.18927 -8.52257,-2.1841 3.75562,4.02694 8.6263,8.51999 11.69693,10.79006 1.90887,1.4112 4.51336,3.19064 5.01504,3.42638 0.21114,0.0992 0.90215,0.48151 1.53557,0.84956 1.4764,0.85785 6.36379,3.05381 7.61364,3.42089 2.44299,0.71751 3.66348,1.00582 4.94735,1.16871 0.76293,0.0968 1.5282,0.25027 1.70059,0.34106 0.41152,0.2167 6.28625,0.14547 7.69119,-0.0933 z m -30.1425,-37.677168 c 0.63343,-0.05376 1.66994,-0.150128 2.30336,-0.214167 1.2314,-0.124489 5.03138,-0.893008 7.54991,-1.526919 0.84456,-0.212574 4.47236,-0.788021 8.06176,-1.27877 13.27028,-1.814327 17.1968,-3.29375 20.49418,-7.721722 1.44415,-1.939325 1.45026,-2.187932 0.11721,-4.771697 -2.66758,-5.170368 0.13266,-6.76326 6.38913,-3.634408 2.19327,1.096853 2.1754,1.096746 2.1754,0.01298 0,-0.983384 -0.19497,-1.168529 -1.51586,-1.439517 -7.19126,-1.475323 -10.51356,-6.912492 -6.73766,-11.026618 0.67849,-0.739272 0.62284,-1.551982 -0.34349,-5.016128 -0.42555,-1.525511 -0.67183,-1.612992 -1.91035,-0.678565 -0.48482,0.365784 -1.38018,0.883902 -1.98969,1.151376 -1.10821,0.486314 -1.10821,0.486314 0.0253,1.619788 3.61365,3.613654 -0.95602,8.08645 -8.77033,8.584395 -5.11891,0.326192 -5.56151,0.48397 -3.24593,1.157125 3.91319,1.137597 4.49832,3.572616 1.2392,5.156973 -3.03545,1.475625 -2.90013,1.58839 0.87331,0.727747 6.05208,-1.380359 10.7068,-1.179045 11.29282,0.488409 1.6144,4.593551 -1.52961,9.299472 -7.85604,11.758842 -1.51348,0.588361 -2.41893,0.863615 -5.50247,1.672742 -1.55913,0.409121 -6.05866,1.097091 -6.20675,0.949003 -0.0719,-0.07195 -0.32237,-0.0283 -0.5565,0.097 -0.23413,0.125303 -1.34188,0.303601 -2.46166,0.39622 -6.55293,0.541998 -10.00928,0.998478 -17.32115,2.287593 -4.04784,0.713663 -4.54932,0.844169 -4.54932,1.183956 0,0.248182 5.02266,0.471091 6.39823,0.283956 0.49266,-0.06702 1.41401,-0.16584 2.04743,-0.219592 z m 21.84164,-36.374779 c 1.00749,-0.675013 3.15725,-2.103997 4.77726,-3.175519 5.11683,-3.384436 8.60008,-7.031228 9.32602,-9.76389 0.19212,-0.723189 0.42456,-1.502388 0.51653,-1.731554 0.28158,-0.701635 -0.66054,-3.238463 -0.9968,-2.684038 -1.5461,2.549245 -2.70935,4.007976 -5.00271,6.273435 -3.80622,3.759917 -5.19306,5.062571 -5.65514,5.311866 -0.76141,0.410787 -4.88641,5.080908 -5.249,5.942667 -0.71471,1.698627 -0.48346,1.681114 2.28384,-0.172967 z M 26.83874,73.232452 c 0,-0.261281 0.385746,-0.981081 0.857216,-1.599557 1.183626,-1.552686 1.702074,-2.627311 1.702074,-3.528012 0,-1.000448 -0.341151,-0.871866 5.788255,-2.181599 13.713874,-2.930385 19.587768,-3.683584 30.086279,-3.857912 55.376906,-0.919541 71.630956,-1.427662 89.231426,-2.789484 4.47878,-0.346543 4.47058,-0.348831 5.70048,1.590522 2.65823,4.191583 -4.86839,6.94668 -16.53412,6.052264 -1.12609,-0.08634 -6.4814,-0.190306 -11.9007,-0.231042 -9.85327,-0.07406 -9.85327,-0.07406 -15.20391,-1.151581 -7.81062,-1.572912 -10.09792,-1.481627 -12.3466,0.49274 -1.05464,0.925987 -0.71741,0.922701 -3.24544,0.03162 -6.39111,-2.252759 -14.2976,-2.39071 -27.044016,-0.471861 -4.293209,0.6463 -9.303021,1.302031 -11.132913,1.457183 -9.507462,0.806105 -18.423634,2.453737 -29.861494,5.518147 -4.755142,1.273987 -6.096537,1.421092 -6.096537,0.668577 z"
       fill="#f3d71d"
       id="path186" />
    <path
       d="m 125.88328,359.54271 c -29.818229,-1.27601 -50.549738,-5.24133 -67.095177,-12.83333 -2.415049,-1.10815 -2.052738,-0.36647 -4.657394,-9.53441 -4.536432,-15.96744 -7.984488,-30.43449 -11.67833,-48.99892 -1.872525,-9.4109 -2.749417,-13.34496 -7.073684,-31.7352 -7.759474,-32.99948 -10.706536,-48.17272 -12.402269,-63.8543 -0.429456,-3.97146 0.343675,-9.40185 1.558414,-10.94614 0.719058,-0.91413 0.733657,-3.24798 0.02148,-3.43422 -0.415491,-0.10865 -0.518499,-0.45954 -0.670463,-2.28384 -0.126163,-1.51457 -0.322631,-2.33736 -0.660767,-2.76723 -0.326236,-0.41474 -0.481218,-1.02664 -0.481218,-1.89993 0,-0.70848 -0.115168,-1.35933 -0.255929,-1.44633 -0.153768,-0.095 -0.255929,-1.83178 -0.255929,-4.35079 0,-2.51901 -0.102162,-4.25576 -0.255929,-4.35079 -0.140761,-0.087 -0.255929,0.0722 -0.255929,0.35368 0,3.15469 -2.267103,-2.59093 -3.588663,-9.09491 -3.391484,-16.69097 -8.9577028,-33.27696 -7.677227,-22.87628 0.450481,3.65904 1.280618,7.2565 3.663925,15.87787 2.799857,10.1282 4.075337,17.29944 3.505909,19.71158 -0.813729,3.44701 -6.071889,-17.25371 -9.1024249,-35.83511 C 7.7526044,124.52862 6.5978187,117.44578 5.9554875,113.50447 4.5202369,104.69786 3.1851856,98.084245 1.3610825,90.744586 -0.46476749,83.3979 -0.41317699,82.206238 1.8558332,79.316612 6.532966,73.360196 20.25785,68.729585 21.741494,72.607429 c 1.016876,2.657839 -1.980185,4.499015 -10.130533,6.223463 -7.0639662,1.494592 -7.7173226,2.563211 -3.8825918,6.350309 3.8338668,3.786242 26.0709878,7.170238 52.3811468,7.971245 46.598334,1.418676 76.139984,1.792204 84.456584,1.067877 2.04103,-0.177764 4.94295,-0.390333 6.44869,-0.472379 2.73772,-0.149176 2.73772,-0.149176 2.61317,-0.817378 -0.0943,-0.506062 0.12381,-0.978711 0.89897,-1.947848 0.56293,-0.703805 1.40323,-1.797902 1.86734,-2.431326 1.67707,-2.288891 4.36368,-3.004625 5.45104,-1.452198 0.71977,1.027619 0.38692,1.321418 -0.40652,0.358828 -1.25945,-1.527919 -3.16798,-0.915722 -4.97199,1.594855 -0.42228,0.587677 -1.14208,1.532329 -1.59956,2.099227 -1.78126,2.207337 -0.16372,3.770936 2.96778,2.868796 2.21287,-0.637496 4.13426,-2.902051 4.13426,-4.872651 0,-0.46812 0.0849,-0.614281 0.25701,-0.442215 0.72901,0.729007 -1.06223,4.061254 -2.61465,4.864037 -1.04951,0.542726 -0.74821,0.709778 1.67445,0.92838 1.14994,0.103761 2.75043,0.25823 3.55666,0.343265 2.43895,0.257244 4.2985,-0.623791 3.27383,-1.551107 -2.25734,-2.042864 1.9903,-6.163406 8.56862,-8.31223 0.98532,-0.321861 1.90091,-0.686115 2.03463,-0.809455 0.13373,-0.12334 0.42553,-0.224255 0.64845,-0.224255 0.83834,0 3.23921,-1.859977 5.90145,-4.571911 2.71785,-2.768587 3.96956,-3.81752 4.23672,-3.550368 0.0752,0.07523 -0.30266,0.460866 -0.83976,0.856963 -3.97186,2.929136 -4.13703,4.056452 -0.30238,2.06374 5.57266,-2.895886 7.89696,-3.491103 6.09177,-1.560013 -2.31793,2.479592 -9.97553,6.136882 -10.90442,5.207985 -0.19466,-0.19466 -0.67952,-0.01454 -1.67507,0.622317 -0.77061,0.492952 -2.54184,1.296091 -3.93607,1.784752 -4.78388,1.67669 -6.02932,2.376004 -8.80014,4.941298 -8.86436,8.206836 38.74853,4.791253 64.90757,-4.656242 4.38818,-1.584818 5.22615,-2.530381 4.87442,-5.500263 -0.60461,-5.104925 -10.59317,-11.46835 -13.34437,-8.501308 -0.65546,0.706884 -0.92446,0.511292 -0.33027,-0.240141 1.02275,-1.293391 3.78838,-1.0284 7.23,0.692751 2.19445,1.097442 2.1754,1.097381 2.1754,0.0069 0,-0.952548 -0.49412,-1.400731 -1.58274,-1.435593 -0.57454,-0.0184 -2.85902,-0.947585 -2.42355,-0.985757 0.11909,-0.01044 0.85369,0.166246 1.63244,0.392634 5.53324,1.608557 7.58874,-1.168511 4.9317,-6.662924 -0.27732,-0.573468 -1.07326,-3.288445 -1.76875,-6.033284 -3.64907,-14.401573 -11.05768,-29.942851 -14.27426,-29.943573 -0.76033,-1.69e-4 -0.74507,0.0367 -2.01327,-4.863069 -2.17648,-8.408957 -3.78243,-11.50343 -6.88654,-13.2695355 C 205.52289,4.902256 203.87203,-2.073286 210.33987,0.59220215 224.22004,6.3124219 238.36912,23.81246 248.69665,48.033094 c 7.35429,17.247665 9.28533,46.499106 4.51642,68.414576 -3.34339,15.36447 -5.61898,38.94382 -8.06427,83.56083 -1.55687,28.40685 -2.44673,41.22585 -3.73085,53.7451 -0.34651,3.37826 -0.79986,8.44566 -1.00744,11.26088 -1.04222,14.13453 -2.61285,27.25767 -5.28379,44.14776 -0.91308,5.77404 -1.04111,7.13085 -1.11083,11.77274 -0.26287,17.50127 -6.67833,27.43971 -18.84422,29.19234 -1.1795,0.16994 -3.64173,0.74851 -5.47163,1.28573 -14.83268,4.35464 -30.65658,6.66381 -52.33749,7.63757 -17.58225,0.78969 -22.66725,0.86918 -31.47927,0.4921 z M 65.482738,333.07215 c -3.157307,-12.87367 -5.004249,-18.98564 -7.225217,-23.90992 -2.377394,-5.27109 -2.917596,-5.96924 -2.623948,-3.39106 1.349764,11.85062 4.60275,22.84098 9.897416,33.43887 2.79184,5.58821 2.790655,5.43752 -0.04825,-6.13789 z m -5.534532,8.52909 c 0.921463,-3.43844 -0.552249,-10.67091 -4.84338,-23.76967 -2.447598,-7.47131 -4.251289,-13.96904 -4.590991,-16.53888 -0.222651,-1.68432 -0.454039,-1.82664 -1.412101,-0.86859 -1.536703,1.5367 -1.072095,4.71638 2.388798,16.34841 0.931254,3.12994 1.825022,6.70015 1.986147,7.9338 0.946876,7.24973 5.718192,19.70597 6.471527,16.89493 z m 86.779914,-38.11378 c 4.66992,-3.09321 4.05721,-12.10892 -1.0183,-14.98362 -4.56916,-2.5879 -7.02303,3.05139 -5.08303,11.68142 0.87022,3.87111 3.27636,5.1734 6.10133,3.3022 z m -13.76554,-0.68176 c 3.48235,-1.78555 4.63894,-7.74357 2.45699,-12.6569 -2.15119,-4.84402 -6.46653,-2.38917 -7.24416,4.12094 -0.11249,0.9417 -0.37804,2.81791 -0.59013,4.1694 -0.76024,4.84448 1.25448,6.4805 5.3773,4.36656 z m -84.738117,-8.90787 c 0.558237,-4.46796 -0.599632,-10.92387 -4.345461,-24.22896 -1.062599,-3.77434 -2.287773,-8.66898 -2.722606,-10.87698 -1.421791,-7.21964 -3.574402,-10.73766 -2.534739,-4.14255 0.504658,3.20132 3.353661,17.81046 3.967842,20.34636 0.340918,1.40761 0.916827,4.95824 1.279801,7.89029 0.903929,7.30179 1.696876,10.19491 3.256147,11.88023 0.772888,0.83538 0.898551,0.73608 1.099016,-0.86839 z m 59.231317,-24.69454 c 19.49538,-4.46732 25.7817,-28.84629 10.39432,-40.31021 -9.92165,-7.39185 -16.13512,-7.92901 -31.635821,-2.73495 -3.167123,1.06126 -6.018356,2.09314 -6.336074,2.29307 -1.129538,0.71078 -2.87704,3.23114 -2.877211,4.1497 -8.9e-5,0.47147 -0.452283,1.97861 -1.004877,3.34921 -7.322489,18.16196 11.320681,37.86796 31.459663,33.25318 z M 82.759236,255.25143 c -7.669021,-1.14529 -9.321872,-7.67521 -3.451822,-13.6371 4.264139,-4.33086 9.229367,-4.70579 12.874549,-0.97216 7.212787,7.38778 1.502695,16.24087 -9.422727,14.60926 z m 97.235744,10.36253 c 13.39125,-2.24947 21.78777,-17.64456 16.26568,-29.82328 -12.93014,-28.51681 -59.36755,-14.81786 -49.18342,14.50902 4.35418,12.53858 16.31512,18.10314 32.91774,15.31426 z m -26.08747,-11.83509 c -5.96912,-1.46975 -7.90528,-6.92472 -4.70677,-13.26092 3.99897,-7.92192 12.55549,-7.82845 16.77671,0.18326 2.54953,4.83888 1.97156,6.45138 -2.16297,6.03457 -3.71854,-0.37486 -4.9386,0.15671 -3.12076,1.3597 1.32461,0.87658 3.01863,2.40216 3.34542,3.01276 1.02112,1.90799 -5.8612,3.72212 -10.13163,2.67063 z M 90.982948,147.96921 c 1.008542,-0.14634 1.705598,-0.48544 3.00137,-1.46007 0.928257,-0.69821 2.352566,-1.75404 3.165131,-2.3463 4.467491,-3.25626 8.310561,-6.18015 9.667121,-7.35494 1.75978,-1.52401 2.17539,-1.80445 2.17539,-1.46794 0,0.13182 -0.66221,0.77809 -1.47159,1.43615 -0.80937,0.65805 -1.67161,1.36073 -1.91607,1.56151 -0.68145,0.55966 -5.47726,4.13139 -8.228462,6.12822 -2.949605,2.14084 -2.98381,2.2591 -0.604486,2.09005 3.366618,-0.2392 4.068038,-0.41208 3.894188,-0.95981 -0.17562,-0.55336 0.87137,-1.09263 1.78346,-0.91858 0.41456,0.0791 0.34699,0.14417 -0.31314,0.30153 -0.46297,0.11036 -0.79959,0.32933 -0.74804,0.48658 0.12739,0.38867 1.4579,0.52021 1.80014,0.17797 0.17756,-0.17757 1.97707,-0.27594 5.04759,-0.27594 5.64067,0 10.22579,-0.24695 10.22579,-0.55075 0,-0.11937 -0.16453,-0.21704 -0.36561,-0.21704 -0.40987,0 -1.16997,-0.67696 -1.16997,-1.04199 0,-0.13071 0.23034,-0.007 0.51186,0.27421 0.36372,0.36371 0.8531,0.51185 1.69092,0.51185 0.90284,0 1.147,0.0836 1.04222,0.35663 -0.37489,0.97693 41.10423,0.8839 41.76575,-0.0937 0.32368,-0.47832 0.62381,-0.51919 3.83894,-0.52274 4.75272,-0.005 7.2961,-0.99424 5.53105,-2.15075 -0.35978,-0.23574 -0.63672,-0.66383 -0.63814,-0.98643 -0.001,-0.31346 -0.28399,-1.17457 -0.62804,-1.91356 -0.34406,-0.739 -0.52248,-1.34363 -0.3965,-1.34363 0.32916,0 0.52354,0.38066 1.16131,2.2743 0.55052,1.63458 0.59912,1.69132 1.68788,1.97062 1.09013,0.27965 1.09987,0.29107 0.35325,0.41431 -0.42228,0.0697 0.26873,0.12882 1.53557,0.13138 1.61702,0.003 2.03645,-0.0515 1.40761,-0.18389 -0.49266,-0.1037 -0.8177,-0.20371 -0.72232,-0.22224 0.0954,-0.0185 1.06956,-0.15833 2.16484,-0.31067 3.4573,-0.48086 5.93131,-1.3939 6.02698,-2.22427 0.0726,-0.62965 0.18009,-0.69786 1.10018,-0.69786 1.78635,0 1.34329,-1.71703 -0.53393,-2.0692 -0.932,-0.17485 -1.52037,-0.69832 -1.25943,-1.12052 0.25364,-0.41041 1.66493,-1.0789 2.0066,-0.95049 0.17233,0.0648 0.0822,0.18957 -0.20929,0.28994 -1.60729,0.55337 -1.72025,0.98235 -0.39799,1.51141 1.05398,0.42172 2.06153,1.24775 2.06153,1.69013 0,0.46854 -1.58974,2.05634 -2.05884,2.05634 -0.25864,0 -0.53446,0.1039 -0.61294,0.23089 -0.17317,0.28018 -3.1823,1.21299 -4.68618,1.45268 -2.82731,0.45061 -0.25716,0.61979 9.41547,0.61979 10.69208,0 15.14571,-0.2569 15.87767,-0.91589 0.27913,-0.25129 1.04594,-0.36375 2.4802,-0.36375 1.14189,0 2.14734,-0.11517 2.23434,-0.25593 0.087,-0.14076 0.36828,-0.25593 0.62508,-0.25593 0.42723,0 0.92732,-0.96424 0.64599,-1.24557 -0.0639,-0.0639 -0.72158,0.0106 -1.46144,0.16558 -2.69343,0.56426 -3.00875,0.60493 -3.00875,0.38807 0,-0.1214 0.82192,-0.37273 1.82648,-0.55852 8.93365,-1.65222 15.78614,-6.65372 18.65803,-13.61814 0.39865,-0.96673 1.55662,-3.28572 2.57326,-5.15331 6.21717,-11.421 9.84809,-21.290123 8.92025,-24.245912 -0.11183,-0.35626 -0.27126,-1.05962 -0.35429,-1.56302 -0.28716,-1.740995 -0.42993,-1.798308 -3.47153,-1.393643 -13.59826,1.809165 -40.02329,4.513992 -56.17643,5.750139 -11.34398,0.868116 -26.7766,1.799456 -29.88742,1.803666 -1.22337,0.002 -1.22337,0.002 -5.74899,4.34054 -5.6632,5.42953 -6.13822,5.45259 -0.72895,0.0354 2.22591,-2.22917 3.94796,-4.11102 3.82678,-4.18189 -0.82572,-0.48285 -3.89483,-0.96329 -5.76285,-0.90212 -2.07601,0.068 -2.13477,0.0537 -2.1144,-0.51184 0.0278,-0.772092 0.06,-0.768023 -7.4429,-0.941266 C 69.574002,97.543177 29.356431,95.473538 7.6197713,92.652125 5.0881178,92.323517 4.8288415,92.331513 4.8288415,92.738189 c 0,0.711662 2.0721838,2.680161 3.7100693,3.524427 2.0610502,1.062395 2.0921192,1.527863 0.1258915,1.886115 -2.1080221,0.384088 -2.044458,0.135102 -1.2168413,4.766499 3.320089,18.57943 8.201123,22.78525 18.50552,15.94558 5.926331,-3.93367 43.900873,-8.00792 68.962385,-7.3989 4.301686,0.10453 7.267694,0.0599 8.701584,-0.13106 1.19647,-0.1593 2.83176,-0.34998 3.63398,-0.42371 0.80221,-0.0737 1.5937,-0.29689 1.75886,-0.49589 0.16515,-0.199 0.73935,-0.36182 1.276,-0.36182 0.53664,0 1.29992,-0.13317 1.69618,-0.29594 2.71278,-1.1143 23.37019,-1.54224 23.37019,-0.48413 0,0.1857 -1.06297,1.19889 -3.5286,3.36339 -0.57626,0.50588 -3.55949,2.80813 -6.62939,5.1161 -4.65507,3.4997 -7.76432,5.91566 -9.16466,7.12114 -0.14076,0.12117 -1.67999,1.7359 -3.42051,3.58827 -7.15807,7.61812 -14.633283,12.86083 -21.057501,14.76862 -0.898416,0.2668 -1.262432,0.52865 -1.467771,1.05583 -0.345942,0.88815 -1.462453,2.87467 -1.812354,3.22457 -0.582423,0.58242 -0.29751,0.99597 0.565677,0.82108 0.457473,-0.0927 1.422902,-0.25431 2.145397,-0.35915 z M 26.83874,73.232452 c 0,-0.261281 0.385746,-0.981081 0.857216,-1.599557 1.183626,-1.552686 1.702074,-2.627311 1.702074,-3.528012 0,-1.000448 -0.341151,-0.871866 5.788255,-2.181599 13.713874,-2.930385 19.587768,-3.683584 30.086279,-3.857912 55.376906,-0.919541 71.630956,-1.427662 89.231426,-2.789484 4.47878,-0.346543 4.47058,-0.348831 5.70048,1.590522 2.65823,4.191583 -4.86839,6.94668 -16.53412,6.052264 -1.12609,-0.08634 -6.4814,-0.190306 -11.9007,-0.231042 -9.85327,-0.07406 -9.85327,-0.07406 -15.20391,-1.151581 -7.81062,-1.572912 -10.09792,-1.481627 -12.3466,0.49274 -1.05464,0.925987 -0.71741,0.922701 -3.24544,0.03162 -6.39111,-2.252759 -14.2976,-2.39071 -27.044016,-0.471861 -4.293209,0.6463 -9.303021,1.302031 -11.132913,1.457183 -9.507462,0.806105 -18.423634,2.453737 -29.861494,5.518147 -4.755142,1.273987 -6.096537,1.421092 -6.096537,0.668577 z"
       fill="#d5ad2d"
       id="path188" />
    <path
       d="m 125.88328,359.54271 c -29.818229,-1.27601 -50.549738,-5.24133 -67.095177,-12.83333 -2.415049,-1.10815 -2.052738,-0.36647 -4.657394,-9.53441 -4.536432,-15.96744 -7.984488,-30.43449 -11.67833,-48.99892 -1.872525,-9.4109 -2.749417,-13.34496 -7.073684,-31.7352 -7.759474,-32.99948 -10.706536,-48.17272 -12.402269,-63.8543 -0.429456,-3.97146 0.343675,-9.40185 1.558414,-10.94614 0.719058,-0.91413 0.733657,-3.24798 0.02148,-3.43422 -0.415491,-0.10865 -0.518499,-0.45954 -0.670463,-2.28384 -0.126163,-1.51457 -0.322631,-2.33736 -0.660767,-2.76723 -0.326236,-0.41474 -0.481218,-1.02664 -0.481218,-1.89993 0,-0.70848 -0.115168,-1.35933 -0.255929,-1.44633 -0.153768,-0.095 -0.255929,-1.83178 -0.255929,-4.35079 0,-2.51901 -0.102162,-4.25576 -0.255929,-4.35079 -0.140761,-0.087 -0.255929,0.0722 -0.255929,0.35368 0,3.15469 -2.267103,-2.59093 -3.588663,-9.09491 -3.391484,-16.69097 -8.9577028,-33.27696 -7.677227,-22.87628 0.450481,3.65904 1.280618,7.2565 3.663925,15.87787 2.799857,10.1282 4.075337,17.29944 3.505909,19.71158 -0.813729,3.44701 -6.071889,-17.25371 -9.1024249,-35.83511 C 7.7526044,124.52862 6.5978187,117.44578 5.9554875,113.50447 4.5202369,104.69786 3.1851856,98.084245 1.3610825,90.744586 -0.46476749,83.3979 -0.41317699,82.206238 1.8558332,79.316612 6.532966,73.360196 20.25785,68.729585 21.741494,72.607429 c 1.016876,2.657839 -1.980185,4.499015 -10.130533,6.223463 -7.0639662,1.494592 -7.7173226,2.563211 -3.8825918,6.350309 3.8338668,3.786242 26.0709878,7.170238 52.3811468,7.971245 46.558144,1.417453 76.123324,1.791798 84.456584,1.069366 8.23113,-0.713579 8.72652,-0.708788 10.10269,0.0977 1.2267,0.718892 1.2267,0.718892 2.792,0.3301 1.56655,-0.389104 1.94179,-0.379307 7.4007,0.193191 1.18842,0.124632 1.76017,0.04385 2.86579,-0.40488 1.2263,-0.497721 1.49029,-0.524289 2.35432,-0.236955 1.79324,0.596338 18.88294,0.4243 24.90252,-0.250687 16.73935,-1.87702 36.55417,-6.44759 43.14368,-9.951709 0.7757,-0.412489 5.87191,-1.647725 9.19381,-2.228426 3.18955,-0.557561 5.25105,-1.04915 6.78212,-1.617269 1.40761,-0.522305 1.40761,-0.522305 1.573,1.698724 0.73525,9.874219 -0.36386,25.808609 -2.34222,33.956229 -0.51887,2.1369 -1.12943,5.54673 -2.03927,11.38885 -0.29594,1.90027 -0.66427,3.7066 -0.81851,4.01406 -0.15423,0.30747 -0.21075,0.82549 -0.12558,1.15118 0.0852,0.32568 -0.12843,2.89573 -0.47466,5.71123 -1.82172,14.81388 -2.96856,29.83814 -4.72769,61.93534 -1.55687,28.40685 -2.44673,41.22585 -3.73085,53.7451 -0.34651,3.37826 -0.79986,8.44566 -1.00744,11.26088 -1.04222,14.13453 -2.61285,27.25767 -5.28379,44.14776 -0.91308,5.77404 -1.04111,7.13085 -1.11083,11.77274 -0.26287,17.50127 -6.67833,27.43971 -18.84422,29.19234 -1.1795,0.16994 -3.64173,0.74851 -5.47163,1.28573 -14.83268,4.35464 -30.65658,6.66381 -52.33749,7.63757 -17.58225,0.78969 -22.66725,0.86918 -31.47927,0.4921 z M 65.482738,333.07215 c -3.157307,-12.87367 -5.004249,-18.98564 -7.225217,-23.90992 -2.377394,-5.27109 -2.917596,-5.96924 -2.623948,-3.39106 1.349764,11.85062 4.60275,22.84098 9.897416,33.43887 2.79184,5.58821 2.790655,5.43752 -0.04825,-6.13789 z m -5.534532,8.52909 c 0.921463,-3.43844 -0.552249,-10.67091 -4.84338,-23.76967 -2.447598,-7.47131 -4.251289,-13.96904 -4.590991,-16.53888 -0.222651,-1.68432 -0.454039,-1.82664 -1.412101,-0.86859 -1.536703,1.5367 -1.072095,4.71638 2.388798,16.34841 0.931254,3.12994 1.825022,6.70015 1.986147,7.9338 0.946876,7.24973 5.718192,19.70597 6.471527,16.89493 z m 86.779914,-38.11378 c 4.66992,-3.09321 4.05721,-12.10892 -1.0183,-14.98362 -4.56916,-2.5879 -7.02303,3.05139 -5.08303,11.68142 0.87022,3.87111 3.27636,5.1734 6.10133,3.3022 z m -13.76554,-0.68176 c 3.48235,-1.78555 4.63894,-7.74357 2.45699,-12.6569 -2.15119,-4.84402 -6.46653,-2.38917 -7.24416,4.12094 -0.11249,0.9417 -0.37804,2.81791 -0.59013,4.1694 -0.76024,4.84448 1.25448,6.4805 5.3773,4.36656 z m -84.738117,-8.90787 c 0.558237,-4.46796 -0.599632,-10.92387 -4.345461,-24.22896 -1.062599,-3.77434 -2.287773,-8.66898 -2.722606,-10.87698 -1.421791,-7.21964 -3.574402,-10.73766 -2.534739,-4.14255 0.504658,3.20132 3.353661,17.81046 3.967842,20.34636 0.340918,1.40761 0.916827,4.95824 1.279801,7.89029 0.903929,7.30179 1.696876,10.19491 3.256147,11.88023 0.772888,0.83538 0.898551,0.73608 1.099016,-0.86839 z m 76.957877,-8.28094 c 2.60698,-1.40618 5.26784,-2.04792 8.48373,-2.04608 2.47412,0.003 4.33978,0.2568 11.41189,1.56217 8.63097,1.5931 13.70427,0.39374 13.10546,-3.0982 -1.35658,-7.91098 -5.37907,-9.64712 -17.73179,-7.65315 -7.20532,1.16307 -12.42335,1.21781 -15.35538,0.1611 -2.31624,-0.83476 -2.17509,-0.82808 -3.89438,-0.1848 -6.21676,2.32598 -5.9434,9.7371 0.43373,11.75904 0.85824,0.2721 1.58038,0.50121 1.60476,0.50922 0.0244,0.008 0.89827,-0.44634 1.94198,-1.0093 z m -17.72656,-16.4136 c 19.49538,-4.46732 25.7817,-28.84629 10.39432,-40.31021 -9.92165,-7.39185 -16.13512,-7.92901 -31.635821,-2.73495 -3.167123,1.06126 -6.018356,2.09314 -6.336074,2.29307 -1.129538,0.71078 -2.87704,3.23114 -2.877211,4.1497 -8.9e-5,0.47147 -0.452283,1.97861 -1.004877,3.34921 -7.322489,18.16196 11.320681,37.86796 31.459663,33.25318 z M 82.759236,255.25143 c -7.669021,-1.14529 -9.321872,-7.67521 -3.451822,-13.6371 4.264139,-4.33086 9.229367,-4.70579 12.874549,-0.97216 7.212787,7.38778 1.502695,16.24087 -9.422727,14.60926 z m 97.235744,10.36253 c 13.39125,-2.24947 21.78777,-17.64456 16.26568,-29.82328 -12.93014,-28.51681 -59.36755,-14.81786 -49.18342,14.50902 4.35418,12.53858 16.31512,18.10314 32.91774,15.31426 z m -26.08747,-11.83509 c -5.96912,-1.46975 -7.90528,-6.92472 -4.70677,-13.26092 3.99897,-7.92192 12.55549,-7.82845 16.77671,0.18326 2.54953,4.83888 1.97156,6.45138 -2.16297,6.03457 -3.71854,-0.37486 -4.9386,0.15671 -3.12076,1.3597 1.32461,0.87658 3.01863,2.40216 3.34542,3.01276 1.02112,1.90799 -5.8612,3.72212 -10.13163,2.67063 z M 89.526397,148.19086 c 0.254788,-0.13635 1.181433,-0.27628 2.05921,-0.31095 1.285657,-0.0508 1.630102,-0.15532 1.771572,-0.53775 0.15357,-0.41514 0.527452,-0.48541 2.978563,-0.55982 3.685268,-0.11188 5.145198,-0.31722 6.385958,-0.8982 1.10807,-0.51885 11.76112,-0.93523 18.81079,-0.73522 12.53692,0.35567 40.05336,-0.004 40.40135,-0.52807 0.32941,-0.49613 0.59416,-0.53312 3.84161,-0.53671 3.64821,-0.004 5.13672,-0.2961 5.7444,-1.12716 0.3098,-0.42366 1.18382,-0.45063 13.62517,-0.42035 13.54887,0.033 18.0178,-0.18079 18.81677,-0.9001 0.27913,-0.25129 1.04594,-0.36375 2.4802,-0.36375 1.14189,0 2.14734,-0.11517 2.23434,-0.25593 0.10122,-0.16379 3.88124,-0.25593 10.49919,-0.25593 9.96816,0 10.35058,-0.0179 10.60641,-0.4959 0.22938,-0.42861 0.63871,-0.51457 3.01617,-0.63348 5.65752,-0.28297 7.09603,-0.44189 7.52926,-0.83183 0.33234,-0.29913 0.98553,-0.36872 2.92967,-0.31213 2.50197,0.0728 2.50197,0.0728 2.81189,-1.0663 0.17046,-0.62652 0.54086,-1.77255 0.82312,-2.54673 0.4097,-1.12375 0.54908,-2.3624 0.69115,-6.1423 0.1944,-5.17199 0.37447,-6.8214 1.06174,-9.7253 0.55117,-2.32885 0.56502,-17.85977 0.0213,-23.929367 -0.3393,-3.78796 -7.32837,-5.21068 -12.50257,-2.545069 -0.85403,0.439973 -21.57541,2.896316 -37.59657,4.456748 -16.19855,1.577713 -36.63306,3.076468 -47.60281,3.491398 -2.91871,0.1104 -4.71519,0.28872 -5.15754,0.51193 -0.58064,0.293 -0.87669,0.27968 -2.04743,-0.0921 -0.91836,-0.29164 -2.25277,-0.4369 -4.0559,-0.44152 -2.62849,-0.007 -2.6868,-0.0196 -2.6663,-0.58864 0.0278,-0.772092 0.06,-0.768023 -7.4429,-0.941266 C 69.574002,97.543177 29.356431,95.473538 7.6197713,92.652125 5.0881178,92.323517 4.8288415,92.331513 4.8288415,92.738189 c 0,0.711662 2.0721838,2.680161 3.7100693,3.524427 2.0610502,1.062395 2.0921192,1.527863 0.1258915,1.886115 -2.1080221,0.384088 -2.044458,0.135102 -1.2168413,4.766499 3.320089,18.57943 8.201123,22.78525 18.50552,15.94558 5.926331,-3.93367 43.900873,-8.00792 68.962385,-7.3989 4.301686,0.10453 7.267694,0.0599 8.701584,-0.13106 1.19647,-0.1593 2.83176,-0.34998 3.63398,-0.42371 0.80221,-0.0737 1.5937,-0.29689 1.75886,-0.49589 0.16515,-0.199 0.73935,-0.36182 1.276,-0.36182 0.53664,0 1.29992,-0.13317 1.69618,-0.29594 2.71278,-1.1143 23.37019,-1.54224 23.37019,-0.48413 0,0.1857 -1.06297,1.19889 -3.5286,3.36339 -0.57626,0.50588 -3.55949,2.80813 -6.62939,5.1161 -4.65507,3.4997 -7.76432,5.91566 -9.16466,7.12114 -0.14076,0.12117 -1.67999,1.7359 -3.42051,3.58827 -7.15807,7.61812 -14.633283,12.86083 -21.057501,14.76862 -0.898416,0.2668 -1.262432,0.52865 -1.467771,1.05583 -0.345942,0.88815 -1.462453,2.87467 -1.812354,3.22457 -0.743707,0.74371 0.190762,1.25289 1.254523,0.68358 z M 26.83874,73.232452 c 0,-0.261281 0.385746,-0.981081 0.857216,-1.599557 1.183626,-1.552686 1.702074,-2.627311 1.702074,-3.528012 0,-1.000448 -0.341151,-0.871866 5.788255,-2.181599 13.713874,-2.930385 19.587768,-3.683584 30.086279,-3.857912 55.376906,-0.919541 71.630956,-1.427662 89.231426,-2.789484 4.47878,-0.346543 4.47058,-0.348831 5.70048,1.590522 2.65823,4.191583 -4.86839,6.94668 -16.53412,6.052264 -1.12609,-0.08634 -6.4814,-0.190306 -11.9007,-0.231042 -9.85327,-0.07406 -9.85327,-0.07406 -15.20391,-1.151581 -7.81062,-1.572912 -10.09792,-1.481627 -12.3466,0.49274 -1.05464,0.925987 -0.71741,0.922701 -3.24544,0.03162 -6.39111,-2.252759 -14.2976,-2.39071 -27.044016,-0.471861 -4.293209,0.6463 -9.303021,1.302031 -11.132913,1.457183 -9.507462,0.806105 -18.423634,2.453737 -29.861494,5.518147 -4.755142,1.273987 -6.096537,1.421092 -6.096537,0.668577 z"
       fill="#28a8dd"
       id="path190" />
    <path
       d="m 125.88328,359.54271 c -29.818229,-1.27601 -50.549738,-5.24133 -67.095177,-12.83333 -2.415049,-1.10815 -2.052738,-0.36647 -4.657394,-9.53441 -4.536432,-15.96744 -7.984488,-30.43449 -11.67833,-48.99892 -1.872525,-9.4109 -2.749417,-13.34496 -7.073684,-31.7352 -7.759474,-32.99948 -10.706536,-48.17272 -12.402269,-63.8543 -0.474641,-4.38932 0.407633,-9.76504 1.8373,-11.19471 0.933476,-0.93347 1.056437,-2.69961 0.24085,-3.45944 -0.373076,-0.34758 -0.566119,-1.02064 -0.740966,-2.58346 -0.135764,-1.21348 -0.400616,-2.29809 -0.621982,-2.5471 -0.490781,-0.55208 -0.681683,-2.17297 -0.900189,-7.64327 -0.09654,-2.4169 -0.268167,-4.48659 -0.381391,-4.59931 -0.246833,-0.24573 -0.680478,0.37428 -0.68597,0.98079 -0.02737,3.02299 -2.286373,-2.74557 -3.592582,-9.174 -3.391484,-16.69097 -8.9577028,-33.27696 -7.677227,-22.87628 0.450481,3.65904 1.280618,7.2565 3.663925,15.87787 2.799857,10.1282 4.075337,17.29944 3.505909,19.71158 -0.813729,3.44701 -6.071889,-17.25371 -9.1024249,-35.83511 C 7.7526044,124.52862 6.5978187,117.44578 5.9554875,113.50447 4.5202369,104.69786 3.1851856,98.084245 1.3610825,90.744586 -0.46476749,83.3979 -0.41317699,82.206238 1.8558332,79.316612 6.532966,73.360196 20.25785,68.729585 21.741494,72.607429 c 1.016876,2.657839 -1.980185,4.499015 -10.130533,6.223463 -7.0639662,1.494592 -7.7173226,2.563211 -3.8825918,6.350309 3.8338668,3.786242 26.0709878,7.170238 52.3811468,7.971245 46.558144,1.417453 76.123324,1.791798 84.456584,1.069366 8.23113,-0.713579 8.72652,-0.708788 10.10269,0.0977 1.2267,0.718892 1.2267,0.718892 2.792,0.3301 1.56655,-0.389104 1.94179,-0.379307 7.4007,0.193191 1.18842,0.124632 1.76017,0.04385 2.86579,-0.40488 1.2263,-0.497721 1.49029,-0.524289 2.35432,-0.236955 1.79324,0.596338 18.88294,0.4243 24.90252,-0.250687 16.73935,-1.87702 36.55417,-6.44759 43.14368,-9.951709 0.7757,-0.412489 5.87191,-1.647725 9.19381,-2.228426 3.18955,-0.557561 5.25105,-1.04915 6.78212,-1.617269 1.40761,-0.522305 1.40761,-0.522305 1.573,1.698724 0.73525,9.874219 -0.36386,25.808609 -2.34222,33.956229 -0.51887,2.1369 -1.12943,5.54673 -2.03927,11.38885 -0.29594,1.90027 -0.66427,3.7066 -0.81851,4.01406 -0.15423,0.30747 -0.21075,0.82549 -0.12558,1.15118 0.0852,0.32568 -0.12843,2.89573 -0.47466,5.71123 -1.82172,14.81388 -2.96856,29.83814 -4.72769,61.93534 -1.55687,28.40685 -2.44673,41.22585 -3.73085,53.7451 -0.34651,3.37826 -0.79986,8.44566 -1.00744,11.26088 -1.04222,14.13453 -2.61285,27.25767 -5.28379,44.14776 -0.91308,5.77404 -1.04111,7.13085 -1.11083,11.77274 -0.26287,17.50127 -6.67833,27.43971 -18.84422,29.19234 -1.1795,0.16994 -3.64173,0.74851 -5.47163,1.28573 -14.83268,4.35464 -30.65658,6.66381 -52.33749,7.63757 -17.58225,0.78969 -22.66725,0.86918 -31.47927,0.4921 z M 65.482738,333.07215 c -3.157307,-12.87367 -5.004249,-18.98564 -7.225217,-23.90992 -2.377394,-5.27109 -2.917596,-5.96924 -2.623948,-3.39106 1.349764,11.85062 4.60275,22.84098 9.897416,33.43887 2.79184,5.58821 2.790655,5.43752 -0.04825,-6.13789 z m -5.534532,8.52909 c 0.921463,-3.43844 -0.552249,-10.67091 -4.84338,-23.76967 -2.447598,-7.47131 -4.251289,-13.96904 -4.590991,-16.53888 -0.222651,-1.68432 -0.454039,-1.82664 -1.412101,-0.86859 -1.536703,1.5367 -1.072095,4.71638 2.388798,16.34841 0.931254,3.12994 1.825022,6.70015 1.986147,7.9338 0.946876,7.24973 5.718192,19.70597 6.471527,16.89493 z m 86.779914,-38.11378 c 4.66992,-3.09321 4.05721,-12.10892 -1.0183,-14.98362 -4.56916,-2.5879 -7.02303,3.05139 -5.08303,11.68142 0.87022,3.87111 3.27636,5.1734 6.10133,3.3022 z m -13.76554,-0.68176 c 3.48235,-1.78555 4.63894,-7.74357 2.45699,-12.6569 -2.15119,-4.84402 -6.46653,-2.38917 -7.24416,4.12094 -0.11249,0.9417 -0.37804,2.81791 -0.59013,4.1694 -0.76024,4.84448 1.25448,6.4805 5.3773,4.36656 z m -84.738117,-8.90787 c 0.558237,-4.46796 -0.599632,-10.92387 -4.345461,-24.22896 -1.062599,-3.77434 -2.287773,-8.66898 -2.722606,-10.87698 -1.421791,-7.21964 -3.574402,-10.73766 -2.534739,-4.14255 0.504658,3.20132 3.353661,17.81046 3.967842,20.34636 0.340918,1.40761 0.916827,4.95824 1.279801,7.89029 0.903929,7.30179 1.696876,10.19491 3.256147,11.88023 0.772888,0.83538 0.898551,0.73608 1.099016,-0.86839 z m 76.957877,-8.28094 c 2.60698,-1.40618 5.26784,-2.04792 8.48373,-2.04608 2.47412,0.003 4.33978,0.2568 11.41189,1.56217 8.63097,1.5931 13.70427,0.39374 13.10546,-3.0982 -1.35658,-7.91098 -5.37907,-9.64712 -17.73179,-7.65315 -7.20532,1.16307 -12.42335,1.21781 -15.35538,0.1611 -2.31624,-0.83476 -2.17509,-0.82808 -3.89438,-0.1848 -6.21676,2.32598 -5.9434,9.7371 0.43373,11.75904 0.85824,0.2721 1.58038,0.50121 1.60476,0.50922 0.0244,0.008 0.89827,-0.44634 1.94198,-1.0093 z m -17.72656,-16.4136 c 19.49538,-4.46732 25.7817,-28.84629 10.39432,-40.31021 -10.17343,-7.57943 -16.65829,-8.00919 -33.226625,-2.20195 -3.475146,1.21805 -5.128237,1.68619 -5.310528,1.5039 -0.182291,-0.18229 -0.264682,-0.12674 -0.264682,0.17843 0,0.24371 -0.163047,0.50568 -0.362326,0.58215 -0.755938,0.29008 -1.61534,1.9919 -1.665812,3.29871 -0.03069,0.79466 -0.423862,2.20724 -1.039051,3.7331 -7.307591,18.125 11.359859,37.82512 31.474704,33.21587 z M 82.759236,255.25143 c -7.669021,-1.14529 -9.321872,-7.67521 -3.451822,-13.6371 4.264139,-4.33086 9.229367,-4.70579 12.874549,-0.97216 7.212787,7.38778 1.502695,16.24087 -9.422727,14.60926 z m 97.235744,10.36253 c 13.39125,-2.24947 21.78777,-17.64456 16.26568,-29.82328 -12.93014,-28.51681 -59.36755,-14.81786 -49.18342,14.50902 4.35418,12.53858 16.31512,18.10314 32.91774,15.31426 z m -26.08747,-11.83509 c -5.96912,-1.46975 -7.90528,-6.92472 -4.70677,-13.26092 3.99897,-7.92192 12.55549,-7.82845 16.77671,0.18326 2.54953,4.83888 1.97156,6.45138 -2.16297,6.03457 -3.71854,-0.37486 -4.9386,0.15671 -3.12076,1.3597 1.32461,0.87658 3.01863,2.40216 3.34542,3.01276 1.02112,1.90799 -5.8612,3.72212 -10.13163,2.67063 z M 139.01478,166.2082 c 0.18841,-0.65983 0.099,-0.983 -0.559,-2.02056 -5.02931,-7.93042 0.58249,-18.95117 8.52688,-16.74552 3.24967,0.90222 3.26077,2.69698 0.06,9.69322 -3.02339,6.60846 -2.79166,7.81087 1.50535,7.81087 3.04214,0 2.90136,0.21045 3.18593,-4.76256 0.73139,-12.7813 4.58531,-17.09383 12.79467,-14.31722 2.13051,0.72059 2.16693,0.7634 2.81013,3.303 2.46745,9.74247 5.83234,12.50654 14.72101,12.0925 6.30512,-0.2937 7.70756,-1.62994 10.12187,-9.6441 2.05537,-6.82268 3.47982,-8.49474 7.73199,-9.07603 1.01897,-0.1393 2.37093,-0.36163 3.00435,-0.49407 2.68604,-0.56162 5.34699,-0.16584 6.04475,0.89908 0.59389,0.9064 0.94254,0.49915 0.80431,-0.9395 -0.11976,-1.24639 -0.11976,-1.24639 9.8149,-1.24639 9.56616,0 9.9445,-0.0184 10.20005,-0.4959 0.22938,-0.42861 0.63871,-0.51457 3.01617,-0.63348 5.65752,-0.28297 7.09603,-0.44189 7.52926,-0.83183 0.33234,-0.29913 0.98553,-0.36872 2.92967,-0.31213 2.50197,0.0728 2.50197,0.0728 2.81189,-1.0663 0.17046,-0.62652 0.54086,-1.77255 0.82312,-2.54673 0.4097,-1.12375 0.54908,-2.3624 0.69115,-6.1423 0.1944,-5.17199 0.37447,-6.8214 1.06174,-9.7253 0.55117,-2.32885 0.56502,-17.85977 0.0213,-23.929367 -0.3393,-3.78796 -7.32837,-5.21068 -12.50257,-2.545069 -0.85403,0.439973 -21.57541,2.896316 -37.59657,4.456748 -16.19855,1.577713 -36.63306,3.076468 -47.60281,3.491398 -2.91871,0.1104 -4.71519,0.28872 -5.15754,0.51193 -0.58064,0.293 -0.87669,0.27968 -2.04743,-0.0921 -0.91836,-0.29164 -2.25277,-0.4369 -4.0559,-0.44152 -2.62849,-0.007 -2.6868,-0.0196 -2.6663,-0.58864 0.0278,-0.772092 0.06,-0.768023 -7.4429,-0.941266 C 69.574002,97.543177 29.356431,95.473538 7.6197713,92.652125 5.0881178,92.323517 4.8288415,92.331513 4.8288415,92.738189 c 0,0.711662 2.0721838,2.680161 3.7100693,3.524427 2.0610502,1.062395 2.0921192,1.527863 0.1258915,1.886115 -2.1080221,0.384088 -2.044458,0.135102 -1.2168413,4.766499 3.320089,18.57943 8.201123,22.78525 18.50552,15.94558 4.903432,-3.25471 24.703331,-5.91887 53.126519,-7.14841 22.6587,-0.98017 17.574738,0.45936 -12.188365,3.45116 -14.661084,1.47374 -21.55278,2.42565 -28.664053,3.95921 -1.548371,0.33391 -3.623901,0.66588 -4.612292,0.73771 -8.609429,0.6257 -16.829808,10.99427 -12.508567,15.77736 1.277235,1.41375 3.124828,2.05089 6.660581,2.2969 1.566419,0.10898 2.956566,0.26523 3.089214,0.34721 0.132648,0.082 1.787821,0.43212 3.678156,0.77808 4.026207,0.73685 4.847018,1.01507 5.027169,1.70397 0.121315,0.46391 0.353328,0.50878 2.631273,0.50878 2.267764,0 2.531727,0.0504 2.861394,0.54696 0.303401,0.45694 0.685997,0.56768 2.324803,0.67285 1.480737,0.095 2.067866,0.24328 2.394966,0.60472 0.278013,0.3072 0.780643,0.47883 1.402282,0.47883 0.532921,0 1.040123,0.11516 1.127119,0.25593 0.087,0.14076 0.748584,0.25592 1.470202,0.25592 1.008552,0 1.453674,0.1332 1.92442,0.57584 0.585622,0.55067 0.83428,0.57947 5.688392,0.65877 4.62558,0.0756 5.115579,0.12666 5.522081,0.57584 0.463674,0.51235 2.926044,0.73792 2.926044,0.26804 0,-0.89684 4.417896,-1.64267 10.109198,-1.70664 4.080945,-0.0459 5.610458,-0.16562 7.544985,-0.59071 3.214267,-0.7063 3.320626,-0.54223 1.552092,2.39426 -0.423875,0.70381 -0.881399,1.52942 -1.016722,1.8347 -0.135322,0.30528 -0.560451,0.70836 -0.944728,0.89575 -0.38428,0.18739 -1.155328,1.01147 -1.713443,1.83129 -0.772501,1.13474 -1.327007,1.63829 -2.32272,2.10926 -4.294845,2.03146 -7.780898,5.48563 -5.536254,5.48563 0.575953,0 1.322283,0.18025 1.658507,0.40055 0.55469,0.36345 0.683064,0.36345 1.385894,0 0.42602,-0.2203 0.936683,-0.40055 1.134805,-0.40055 0.198125,0 0.802317,-0.7198 1.342652,-1.59955 1.701934,-2.77105 8.781484,-9.34293 9.689356,-8.99454 0.265537,0.10189 0.472719,-0.035 0.608487,-0.402 0.191266,-0.51704 0.404634,-0.56272 3.008814,-0.64416 3.301229,-0.10324 5.509518,-0.35265 5.894388,-0.66573 0.1669,-0.13576 0.95745,0.0386 1.99738,0.44047 2.95904,1.14355 3.17532,2.41988 0.63826,3.76642 -4.48646,2.38118 -5.246012,7.53327 -1.70385,11.55738 3.0524,3.46771 8.1805,2.77185 5.27774,-0.71617 -5.53346,-6.64912 -1.65697,-12.2091 10.0221,-14.37452 7.44553,-1.38047 18.36966,0.98184 16.35926,3.53765 -1.74507,2.21849 -1.74396,5.31114 0.004,12.43912 0.43071,1.75598 0.78312,3.46021 0.78312,3.78717 0,1.05567 3.09582,0.74359 3.4062,-0.34336 z m 37.51232,-9.16522 c -7.41787,-2.65079 -7.33236,-10.83776 0.11096,-10.6225 2.07738,0.0601 2.52893,-0.0113 3.88607,-0.61432 5.29399,-2.35227 10.27062,1.51737 8.73288,6.79033 -0.90483,3.10271 -2.71301,4.27084 -7.06934,4.56697 -4.01786,0.27312 -4.5934,0.26087 -5.66057,-0.12048 z M 26.83874,73.232452 c 0,-0.261281 0.385746,-0.981081 0.857216,-1.599557 1.183626,-1.552686 1.702074,-2.627311 1.702074,-3.528012 0,-1.000448 -0.341151,-0.871866 5.788255,-2.181599 13.713874,-2.930385 19.587768,-3.683584 30.086279,-3.857912 55.376906,-0.919541 71.630956,-1.427662 89.231426,-2.789484 4.47878,-0.346543 4.47058,-0.348831 5.70048,1.590522 2.65823,4.191583 -4.86839,6.94668 -16.53412,6.052264 -1.12609,-0.08634 -6.4814,-0.190306 -11.9007,-0.231042 -9.85327,-0.07406 -9.85327,-0.07406 -15.20391,-1.151581 -7.81062,-1.572912 -10.09792,-1.481627 -12.3466,0.49274 -1.05464,0.925987 -0.71741,0.922701 -3.24544,0.03162 -6.39111,-2.252759 -14.2976,-2.39071 -27.044016,-0.471861 -4.293209,0.6463 -9.303021,1.302031 -11.132913,1.457183 -9.507462,0.806105 -18.423634,2.453737 -29.861494,5.518147 -4.755142,1.273987 -6.096537,1.421092 -6.096537,0.668577 z"
       fill="#3698a6"
       id="path192" />
    <path
       d="M 130.61797,359.67382 C 96.941132,357.87065 80.908828,355.22201 64.20438,348.70194 56.938839,345.86606 56.919916,345.8536 56.17767,343.41785 51.678489,328.65327 46.985663,309.52772 43.063738,289.97218 40.782673,278.59831 39.99522,275.0559 35.435908,255.6579 23.870036,206.44986 20.960821,186.23931 24.812035,181.85302 c 0.945018,-1.07631 1.073105,-3.14684 0.242541,-3.92062 -0.373076,-0.34758 -0.566119,-1.02064 -0.740966,-2.58346 -0.135764,-1.21348 -0.400616,-2.29809 -0.621982,-2.5471 -0.491714,-0.55313 -0.682101,-2.17607 -0.900189,-7.67364 -0.13695,-3.45224 -0.257217,-4.47508 -0.547203,-4.65382 -0.52208,-0.32179 -0.778668,-0.09 -0.788146,0.71198 -0.02789,2.35959 -2.110845,-3.86213 -3.325237,-9.93235 -3.72498,-18.6196 -10.3114202,-35.33933 -7.522287,-19.09539 0.458969,2.67304 1.802063,8.02097 3.782791,15.06231 1.694625,6.02427 2.643344,10.61187 2.951098,14.27024 0.980641,11.65717 -5.279557,-11.76778 -8.5494658,-31.99113 C 4.3121115,101.78722 3.0434359,95.235762 0.56601095,87.015818 -0.50351909,83.467182 0.00732101,81.61183 2.8805988,78.609321 8.9262497,72.291754 22.617261,68.774117 21.612795,73.79645 c -0.414682,2.073412 -3.159577,3.379226 -10.114972,4.811945 -7.194788,1.482031 -7.9235088,2.720211 -3.9258692,6.670499 3.1498572,3.11255 20.3484542,6.364157 40.2529672,7.610321 3.701602,0.231747 8.02645,0.378762 30.711486,1.043986 30.538223,0.895514 58.762213,1.126203 65.901733,0.538646 8.30276,-0.683287 9.25938,-0.686299 10.4221,-0.03282 0.93422,0.525062 1.16966,0.557739 2.22152,0.308321 1.12293,-0.266274 1.9873,-0.227375 7.99355,0.359726 1.20663,0.117945 1.67262,0.03213 2.84999,-0.524857 1.2054,-0.570246 1.51276,-0.623891 2.14052,-0.373605 1.44011,0.574174 19.13687,0.391077 24.9183,-0.25781 16.74998,-1.879965 36.55488,-6.448488 43.14368,-9.952231 0.7757,-0.412489 5.87191,-1.647725 9.19381,-2.228426 3.23378,-0.565296 5.27631,-1.048953 6.60218,-1.563352 2.24521,-0.871075 2.77668,11.010571 1.06511,23.811667 -0.93536,6.99564 -1.1436,8.35154 -1.6337,10.63769 -0.28666,1.33723 -0.682,3.17992 -0.87852,4.09487 -2.83666,13.20699 -5.27936,39.46258 -7.58364,81.5134 -1.67294,30.52944 -2.47791,41.83651 -4.09039,57.45607 -0.26883,2.60408 -0.55896,5.82879 -0.64473,7.16601 -0.75623,11.79014 -2.45132,25.99385 -5.38337,45.10909 -0.90982,5.93146 -1.09983,7.74413 -0.97918,9.34141 1.24063,16.42524 -6.34041,28.65719 -18.97675,30.61886 -1.26684,0.19666 -4.33056,0.94592 -6.80825,1.66497 -12.51866,3.63317 -26.72084,5.80168 -45.40127,6.9322 -12.09224,0.73183 -28.51187,1.30708 -31.99113,1.12079 z m -1.10954,-3.61635 c 0.9394,-0.93939 -1.83501,-1.38658 -13.86231,-2.23429 -2.8856,-0.20339 -6.68615,-0.54126 -8.44566,-0.75085 -9.612969,-1.14502 -17.229967,-1.21054 -14.411408,-0.12394 5.108892,1.96955 35.302388,4.52608 36.719378,3.10908 z M 68.043316,342.8491 c 0,-0.66127 -4.569237,-18.9635 -5.72654,-22.93785 -2.13525,-7.33272 -5.926534,-16.37946 -6.864276,-16.37946 -0.876846,0 1.298646,12.44921 3.398978,19.45061 2.76905,9.23054 9.191838,23.11239 9.191838,19.8667 z m -7.900097,-1.07703 c 0.887953,-4.10111 -0.398781,-10.54072 -4.777246,-23.90825 -2.406772,-7.34793 -4.239111,-13.91144 -4.608376,-16.50742 -0.236225,-1.66068 -0.484422,-1.97452 -1.276239,-1.61374 -2.285743,1.04145 -1.932778,4.69673 1.575131,16.31187 0.911041,3.01658 1.832823,6.64438 2.048405,8.06176 1.382011,9.0864 6.249843,21.29744 7.038325,17.65578 z m 86.499391,-37.94778 c 4.0786,-2.58657 4.7921,-8.50636 1.57625,-13.0779 -5.33308,-7.5813 -10.82086,-0.11744 -7.63396,10.38287 0.96513,3.17989 3.50874,4.31153 6.05771,2.69503 z m -13.68003,-0.76413 c 4.43322,-2.27971 5.17718,-10.98393 1.28856,-15.07606 -2.32382,-2.44545 -5.73501,1.08985 -6.34927,6.5803 -0.12969,1.15915 -0.34619,2.58572 -0.48112,3.17014 -1.20458,5.21757 1.22033,7.54788 5.54183,5.32562 z M 48.442998,293.914 c 0.595012,-3.84963 -0.652092,-11.06921 -3.960605,-22.92827 -1.269676,-4.55103 -2.707166,-10.26496 -3.194419,-12.69761 -1.184373,-5.91306 -3.188356,-9.92533 -3.188356,-6.38355 0,1.78776 2.840162,17.24643 4.218934,22.96317 0.356463,1.47799 0.94104,5.0482 1.299057,7.9338 0.950068,7.6575 1.553456,9.94842 3.094407,11.74868 1.157176,1.35189 1.439747,1.24804 1.730982,-0.63622 z m 76.769312,-8.29665 c 4.56195,-2.50376 8.3885,-2.65266 18.45804,-0.71824 13.33716,2.56213 18.67648,-1.3037 12.02244,-8.70458 -2.72477,-3.03061 -5.57404,-3.35864 -15.47748,-1.78191 -6.6084,1.05212 -12.30341,1.14073 -14.71592,0.22898 -2.93582,-1.10956 -4.7807,-0.724 -7.04561,1.47239 -3.87335,3.75614 -1.28276,9.40841 4.81828,10.51281 0.0418,0.008 0.91493,-0.44674 1.94025,-1.00945 z m -17.44204,-16.2279 c 2.81473,-0.71402 3.5304,-1.04614 7.95827,-3.69301 14.67613,-8.77304 14.70129,-30.03882 0.0455,-38.49277 -0.98532,-0.56837 -2.42492,-1.40651 -3.19911,-1.86253 -7.03093,-4.14146 -13.785518,-3.91684 -27.384408,0.91066 -2.463317,0.87445 -4.801188,1.58285 -5.195267,1.57421 -0.531486,-0.0116 -0.777684,0.14519 -0.9534,0.60736 -0.130291,0.34269 -0.335385,0.62307 -0.455769,0.62307 -0.575924,0 -1.841222,2.28865 -1.841222,3.33037 0,0.65366 -0.393826,2.04811 -1.010203,3.57691 -7.371973,18.28469 12.008377,38.50602 32.035569,33.42573 z M 82.104542,254.90341 c -6.800905,-1.15191 -8.090217,-7.29802 -2.72275,-12.97927 4.150872,-4.39354 8.801722,-4.81632 12.470995,-1.13366 7.483033,7.51032 1.595285,16.03426 -9.748245,14.11293 z m 98.295858,10.87913 c 16.25654,-3.23349 22.8508,-21.10732 12.97799,-35.17706 -15.00404,-21.38225 -51.93811,-8.94715 -47.5196,15.99908 2.64131,14.91238 16.71164,22.72444 34.54161,19.17798 z M 154.13966,253.6178 c -7.09734,-1.40714 -8.39776,-10.10331 -2.41203,-16.12981 5.27896,-5.31493 12.78277,-2.25034 15.22728,6.21888 0.76148,2.63818 0.28832,3.00596 -3.62037,2.8141 -4.50798,-0.22128 -4.86669,0.18975 -2.02567,2.32108 2.25223,1.68961 2.92558,2.5493 2.44771,3.1251 -1.17158,1.41167 -6.34421,2.2995 -9.61692,1.65065 z m 0.27971,-61.78877 c 1.82989,-0.0753 3.73016,-0.20425 4.22283,-0.28652 0.49266,-0.0823 1.24125,-0.18894 1.66354,-0.23706 0.42228,-0.0481 1.28604,-0.15367 1.91947,-0.23455 0.63342,-0.0809 1.55476,-0.19791 2.04743,-0.26005 0.49266,-0.0621 1.29884,-0.17819 1.7915,-0.2579 0.49266,-0.0797 1.24126,-0.19454 1.66354,-0.25518 0.77799,-0.11174 3.33784,-0.5558 7.29398,-1.2653 16.96686,-3.04287 28.79985,-8.5102 41.49248,-19.1712 0.36948,-0.31034 1.16042,-0.96735 1.75764,-1.46002 0.59722,-0.49266 1.57264,-1.35642 2.1676,-1.91946 0.59496,-0.56305 1.85918,-1.71473 2.80938,-2.55929 0.95019,-0.84457 2.33139,-2.11142 3.06933,-2.81522 2.64187,-2.51968 5.47206,-5.07492 7.85399,-7.09101 0.61648,-0.5218 1.46637,-1.24363 1.88866,-1.60409 0.42228,-0.36045 1.31023,-1.08521 1.97321,-1.61057 0.84472,-0.66937 1.256,-1.20778 1.37441,-1.79923 0.15199,-0.75915 0.24827,-0.83636 0.95758,-0.76779 0.6193,0.0599 0.85591,-0.0567 1.1021,-0.54289 0.17242,-0.34052 0.49471,-0.72054 0.71619,-0.84449 0.28599,-0.16005 0.4027,-0.61202 0.4027,-1.55956 0,-1.13815 0.0846,-1.37133 0.57584,-1.58684 0.31671,-0.13895 0.61057,-0.49599 0.65302,-0.79341 0.0425,-0.29743 0.35005,-0.66511 0.68356,-0.81706 0.49883,-0.22728 0.63824,-0.53985 0.78616,-1.76258 0.0989,-0.81747 0.26389,-1.60148 0.36667,-1.74224 0.10279,-0.14076 0.30819,-0.7166 0.45645,-1.27965 0.14826,-0.56304 0.50065,-1.65714 0.78309,-2.43132 0.41014,-1.12424 0.54934,-2.36075 0.69147,-6.1423 0.1944,-5.17199 0.37447,-6.8214 1.06174,-9.7253 0.55117,-2.32885 0.56502,-17.85977 0.0213,-23.929367 -0.3393,-3.78796 -7.32837,-5.21068 -12.50257,-2.545069 -0.85417,0.440045 -21.58702,2.89768 -37.59657,4.456636 -12.34758,1.202362 -28.16742,2.440442 -39.41308,3.08451 -2.74484,0.15721 -6.8333,0.39815 -9.08548,0.53544 -5.33473,0.32519 -6.24073,0.31402 -6.71925,-0.0828 -0.2804,-0.23256 -1.26281,-0.3188 -3.3247,-0.29188 -2.78707,0.0364 -2.92045,0.0144 -2.7959,-0.46192 0.20907,-0.799486 -0.50193,-0.898055 -7.76244,-1.076128 C 65.899598,97.137289 31.308799,95.351053 7.2668815,92.386071 c -2.6821377,-0.330775 -2.693969,-0.329754 -2.693969,0.232507 0,0.787035 2.1512218,2.946424 3.8229171,3.837428 1.8699714,0.996683 1.9235864,1.226929 0.3359299,1.442629 -2.5301747,0.343746 -2.4563438,0.0091 -1.3344484,6.048645 3.2945879,17.73592 8.8396199,22.18634 18.7635209,15.05954 3.015635,-2.16567 19.88918,-5.08213 35.484258,-6.13318 6.811613,-0.45908 8.082585,-0.52668 17.147246,-0.91205 10.469866,-0.44511 12.993369,-0.47113 12.652682,-0.13044 -0.335782,0.33578 -9.602993,1.63814 -17.387369,2.44353 -22.853062,2.3644 -25.894853,2.75024 -34.166528,4.33389 -2.463317,0.47161 -5.515271,0.9861 -6.78212,1.14332 -13.712575,1.70173 -18.427433,17.44003 -5.502474,18.36739 4.613789,0.33104 11.772736,2.02069 11.772736,2.77861 0,0.30515 0.494089,0.37489 2.656039,0.37489 2.428954,0 2.687089,0.0468 3.019208,0.54696 0.303401,0.45694 0.685997,0.56768 2.324803,0.67285 1.480737,0.095 2.067866,0.24328 2.394966,0.60472 0.278013,0.3072 0.780643,0.47883 1.402282,0.47883 0.532921,0 1.040123,0.11516 1.127119,0.25593 0.087,0.14076 0.748584,0.25592 1.470202,0.25592 1.008552,0 1.453674,0.1332 1.924418,0.57584 0.585227,0.5503 0.83569,0.57951 5.646933,0.65851 4.48918,0.0737 5.089991,0.13433 5.546402,0.5596 0.702341,0.65443 2.916261,0.79227 3.491159,0.21737 0.909449,-0.90945 4.89265,-1.55525 9.344231,-1.51498 3.676416,0.0333 7.856351,-0.35966 9.622384,-0.90451 1.193876,-0.36833 -1.411267,4.76626 -2.687255,5.29643 -0.387092,0.16083 -0.705993,0.42241 -0.708667,0.58129 -0.01518,0.90123 -1.608742,2.76329 -2.877759,3.36259 -10.93615,5.16469 -11.129919,16.39555 -0.403188,23.36879 6.948589,4.51714 8.244133,5.30383 11.21961,6.81287 7.00728,3.55379 16.25305,6.44009 23.8014,7.4302 0.63343,0.0831 1.4396,0.20252 1.79151,0.26542 0.75207,0.13441 2.67838,0.36359 4.47875,0.53287 0.70381,0.0662 1.85549,0.17848 2.55929,0.24958 0.70381,0.0711 2.3424,0.16098 3.64132,0.19974 1.29891,0.0388 2.41223,0.12101 2.47403,0.18278 0.14834,0.14827 17.52343,0.0419 21.78092,-0.13335 z M 27.094669,73.104487 c 0,-0.1909 0.385746,-0.853116 0.857216,-1.471592 1.179265,-1.546963 1.702074,-2.626748 1.702074,-3.515372 0,-0.568311 0.141094,-0.787238 0.57584,-0.893497 12.236585,-2.990813 24.495556,-4.74449 34.358475,-4.915066 60.080246,-1.039065 72.783056,-1.434411 89.703126,-2.7918 4.50103,-0.36109 4.58507,-0.341238 5.64762,1.334233 2.7441,4.327 -1.41169,5.825817 -15.88478,5.728964 -23.11962,-0.154712 -21.52705,-0.08087 -27.4536,-1.272979 -7.80076,-1.569101 -10.24816,-1.461406 -12.63789,0.556111 -0.80639,0.680787 -0.80639,0.680787 -3.4683,-0.209946 -6.613192,-2.212914 -13.183989,-2.255469 -27.460517,-0.177845 -4.926635,0.716957 -10.517164,1.417903 -12.423403,1.557656 -6.640537,0.486838 -13.865371,1.827338 -25.051817,4.648132 -7.218356,1.820195 -8.464044,2.029625 -8.464044,1.423001 z"
       fill="#008ecf"
       id="path194" />
    <path
       d="M 130.61797,359.67382 C 96.941132,357.87065 80.908828,355.22201 64.20438,348.70194 56.938839,345.86606 56.919916,345.8536 56.17767,343.41785 51.678489,328.65327 46.985663,309.52772 43.063738,289.97218 40.782673,278.59831 39.99522,275.0559 35.435908,255.6579 23.898611,206.57143 20.955291,186.1753 24.789735,181.88381 c 1.272019,-1.42363 2.294929,0.24598 3.421204,5.58416 6.422371,30.44001 16.919413,70.29181 24.773996,94.05392 2.938088,8.88847 2.440306,8.036 4.58731,7.856 2.225805,-0.1866 2.261674,-0.10943 1.151057,2.47635 -2.060598,4.79756 -1.043433,7.22766 5.417096,12.94189 2.739513,2.42306 2.486343,3.13396 -0.940281,2.64029 -2.373171,-0.34189 -2.214119,-0.67409 -1.329157,2.77604 0.41147,1.60416 0.987789,4.06835 1.280713,5.47596 4.506946,21.65769 9.032427,29.34889 18.399261,31.27026 28.947556,5.93775 61.981686,6.96209 105.657916,3.27622 17.15977,-1.4481 30.52825,-6.78043 34.80505,-13.88274 1.10575,-1.83629 1.13576,-1.75189 -0.69086,-1.94281 -2.94826,-0.30817 -2.87076,-1.02254 0.25134,-2.31662 4.62609,-1.9175 6.07018,-3.42597 5.9988,-6.26629 -0.031,-1.23264 0.14768,-2.23734 0.68552,-3.85514 1.82577,-5.4918 2.19641,-9.75287 1.77214,-20.37367 -0.35787,-8.95851 -0.24959,-12.51547 0.48258,-15.85291 1.13102,-5.15548 1.7349,-10.29751 2.7351,-23.28954 0.67817,-8.8091 1.17896,-13.76593 1.78411,-17.65911 0.56961,-3.66455 0.86243,-7.57219 1.27533,-17.01928 0.46777,-10.70239 0.76406,-14.80743 1.43161,-19.8345 0.83027,-6.25245 0.97159,-6.72091 2.4836,-8.23292 2.16648,-2.16648 2.10254,-3.68588 -0.30289,-7.1982 -3.67246,-5.3624 -3.67518,-8.17341 -0.0112,-11.55079 1.40303,-1.29327 1.44815,-3.17333 0.37199,-15.50231 -1.13921,-13.05136 -1.11775,-17.3396 0.0862,-17.22329 0.61778,0.0597 0.85473,-0.0572 1.10074,-0.54308 0.17242,-0.34052 0.49471,-0.72054 0.71619,-0.84449 0.286,-0.16005 0.40271,-0.61202 0.40271,-1.55956 0,-1.13815 0.0846,-1.37133 0.57584,-1.58684 0.31671,-0.13895 0.61057,-0.49599 0.65302,-0.79341 0.0425,-0.29743 0.35005,-0.66511 0.68356,-0.81706 0.49883,-0.22728 0.63824,-0.53985 0.78616,-1.76258 0.0989,-0.81747 0.26389,-1.60148 0.36667,-1.74224 0.10279,-0.14076 0.30819,-0.7166 0.45645,-1.27965 0.14826,-0.56304 0.50065,-1.65714 0.78309,-2.43132 0.41014,-1.12424 0.54934,-2.36075 0.69147,-6.1423 0.1944,-5.17199 0.37447,-6.8214 1.06174,-9.7253 0.55117,-2.32885 0.56502,-17.85977 0.0213,-23.929367 -0.3393,-3.78796 -7.32837,-5.21068 -12.50257,-2.545069 -0.85417,0.440045 -21.58702,2.89768 -37.59657,4.456636 -12.34758,1.202362 -28.16742,2.440442 -39.41308,3.08451 -2.74484,0.15721 -6.8333,0.39815 -9.08548,0.53544 -5.33473,0.32519 -6.24073,0.31402 -6.71925,-0.0828 -0.2804,-0.23256 -1.26281,-0.3188 -3.3247,-0.29188 -2.78707,0.0364 -2.92045,0.0144 -2.7959,-0.46192 0.20907,-0.799486 -0.50193,-0.898055 -7.76244,-1.076128 C 65.899598,97.137289 31.308799,95.351053 7.2668815,92.386071 c -2.6821377,-0.330775 -2.693969,-0.329754 -2.693969,0.232507 0,0.787035 2.1512218,2.946424 3.8229171,3.837428 1.8699714,0.996683 1.9235864,1.226929 0.3359299,1.442629 -2.5301747,0.343746 -2.4563438,0.0091 -1.3344484,6.048645 3.2945879,17.73592 8.8396199,22.18634 18.7635209,15.05954 3.015635,-2.16567 19.88918,-5.08213 35.484258,-6.13318 6.811613,-0.45908 8.082585,-0.52668 17.147246,-0.91205 10.469866,-0.44511 12.993369,-0.47113 12.652682,-0.13044 -0.335782,0.33578 -9.602993,1.63814 -17.387369,2.44353 -22.853062,2.3644 -25.894853,2.75024 -34.166528,4.33389 -2.463317,0.47161 -5.515271,0.9861 -6.78212,1.14332 -13.712575,1.70173 -18.427433,17.44003 -5.502474,18.36739 2.239763,0.1607 10.496405,1.72065 11.25441,2.12632 0.881471,0.47175 0.643286,1.25102 -0.535378,1.7516 -1.053703,0.44751 -1.053703,0.44751 0.01827,1.15692 0.877698,0.58083 1.016609,0.77613 0.766438,1.07757 -0.465194,0.56052 -0.690486,0.51498 -8.335673,-1.68501 -9.605975,-2.76424 -11.677639,-2.96788 -9.054439,-0.89001 2.009388,1.59166 1.744926,2.24917 -0.616516,1.5328 -2.131045,-0.64647 -2.005058,-1.28809 -1.030739,5.24932 0.241255,1.61875 0.42875,3.37541 0.416656,3.90369 -0.01209,0.52828 0.148056,1.73755 0.355888,2.68726 0.969113,4.42847 1.060357,7.50374 0.187308,6.31301 -0.60405,-0.82385 -2.063396,-5.8974 -2.901903,-10.08874 -3.72498,-18.6196 -10.3114202,-35.33933 -7.522287,-19.09539 0.458969,2.67304 1.802063,8.02097 3.782791,15.06231 1.694625,6.02427 2.643344,10.61187 2.951098,14.27024 0.980641,11.65717 -5.279557,-11.76778 -8.5494658,-31.99113 C 4.3121115,101.78722 3.0434359,95.235762 0.56601095,87.015818 -0.50351909,83.467182 0.00732101,81.61183 2.8805988,78.609321 8.9262497,72.291754 22.617261,68.774117 21.612795,73.79645 c -0.414682,2.073412 -3.159577,3.379226 -10.114972,4.811945 -7.194788,1.482031 -7.9235088,2.720211 -3.9258692,6.670499 3.1498572,3.11255 20.3484542,6.364157 40.2529672,7.610321 3.701602,0.231747 8.02645,0.378762 30.711486,1.043986 30.538223,0.895514 58.762213,1.126203 65.901733,0.538646 8.30276,-0.683287 9.25938,-0.686299 10.4221,-0.03282 0.93422,0.525062 1.16966,0.557739 2.22152,0.308321 1.12293,-0.266274 1.9873,-0.227375 7.99355,0.359726 1.20663,0.117945 1.67262,0.03213 2.84999,-0.524857 1.2054,-0.570246 1.51276,-0.623891 2.14052,-0.373605 1.44011,0.574174 19.13687,0.391077 24.9183,-0.25781 16.74998,-1.879965 36.55488,-6.448488 43.14368,-9.952231 0.7757,-0.412489 5.87191,-1.647725 9.19381,-2.228426 3.23378,-0.565296 5.27631,-1.048953 6.60218,-1.563352 2.24521,-0.871075 2.77668,11.010571 1.06511,23.811667 -0.93536,6.99564 -1.1436,8.35154 -1.6337,10.63769 -0.28666,1.33723 -0.682,3.17992 -0.87852,4.09487 -2.83666,13.20699 -5.27936,39.46258 -7.58364,81.5134 -1.67294,30.52944 -2.47791,41.83651 -4.09039,57.45607 -0.26883,2.60408 -0.55896,5.82879 -0.64473,7.16601 -0.75623,11.79014 -2.45132,25.99385 -5.38337,45.10909 -0.90982,5.93146 -1.09983,7.74413 -0.97918,9.34141 1.24063,16.42524 -6.34041,28.65719 -18.97675,30.61886 -1.26684,0.19666 -4.33056,0.94592 -6.80825,1.66497 -12.51866,3.63317 -26.72084,5.80168 -45.40127,6.9322 -12.09224,0.73183 -28.51187,1.30708 -31.99113,1.12079 z m -1.10954,-3.61635 c 0.9394,-0.93939 -1.83501,-1.38658 -13.86231,-2.23429 -2.8856,-0.20339 -6.68615,-0.54126 -8.44566,-0.75085 -9.612969,-1.14502 -17.229967,-1.21054 -14.411408,-0.12394 5.108892,1.96955 35.302388,4.52608 36.719378,3.10908 z M 68.043316,342.8491 c 0,-0.66127 -4.569237,-18.9635 -5.72654,-22.93785 -2.13525,-7.33272 -5.926534,-16.37946 -6.864276,-16.37946 -0.876846,0 1.298646,12.44921 3.398978,19.45061 2.76905,9.23054 9.191838,23.11239 9.191838,19.8667 z m -7.900097,-1.07703 c 0.887953,-4.10111 -0.398781,-10.54072 -4.777246,-23.90825 -2.406772,-7.34793 -4.239111,-13.91144 -4.608376,-16.50742 -0.236225,-1.66068 -0.484422,-1.97452 -1.276239,-1.61374 -2.285743,1.04145 -1.932778,4.69673 1.575131,16.31187 0.911041,3.01658 1.832823,6.64438 2.048405,8.06176 1.382011,9.0864 6.249843,21.29744 7.038325,17.65578 z M 48.442998,293.914 c 0.595012,-3.84963 -0.652092,-11.06921 -3.960605,-22.92827 -1.269676,-4.55103 -2.707166,-10.26496 -3.194419,-12.69761 -1.184373,-5.91306 -3.188356,-9.92533 -3.188356,-6.38355 0,1.78776 2.840162,17.24643 4.218934,22.96317 0.356463,1.47799 0.94104,5.0482 1.299057,7.9338 0.950068,7.6575 1.553456,9.94842 3.094407,11.74868 1.157176,1.35189 1.439747,1.24804 1.730982,-0.63622 z m 56.198172,25.32326 c -0.3519,-0.0508 -1.67634,-0.21736 -2.94318,-0.3701 -1.26685,-0.15271 -6.046328,-1.02179 -10.62106,-1.93126 -9.507976,-1.89025 -14.393976,-2.64534 -17.154281,-2.6511 -3.056223,-0.006 -4.061359,-1.34948 -2.316012,-3.09482 1.279264,-1.27926 3.754827,-0.99387 11.412424,1.31566 5.247715,1.58269 9.155744,2.53316 11.503975,2.79784 0.99024,0.11164 2.952121,0.45061 4.35973,0.75333 2.098534,0.4513 17.059074,2.31887 18.575704,2.31887 0.23722,0 0.49154,0.23033 0.56517,0.51185 0.12663,0.48425 -10.52433,0.7626 -13.38247,0.34973 z m 24.1853,-11.45014 c -3.41472,-1.60731 -4.66045,-4.02791 -5.378,-10.45004 -0.96922,-8.67464 -2.33433,-10.60895 -8.35227,-11.8349 -1.42394,-0.29007 -1.63824,-4.94017 -0.35668,-7.73948 1.35715,-2.96439 4.44851,-6.37816 9.45843,-10.44487 1.38726,-1.12609 3.26292,-2.76344 4.16813,-3.63857 1.99422,-1.92791 2.2678,-2.00085 7.37047,-1.96459 11.45695,0.0814 23.15401,9.12994 26.71488,20.66594 0.93962,3.04407 0.83747,3.20124 -4.19313,6.45174 -6.24467,4.03501 -7.56647,6.09165 -6.78946,10.56404 1.20036,6.90911 -1.92153,9.04322 -10.12939,6.92436 -5.47228,-1.41267 -7.98247,-1.09368 -9.76299,1.24072 -0.75582,0.99091 -1.0695,1.01665 -2.74999,0.22565 z m 17.81614,-3.96283 c 4.0786,-2.58657 4.7921,-8.50636 1.57625,-13.0779 -5.33308,-7.5813 -10.82086,-0.11744 -7.63396,10.38287 0.96513,3.17989 3.50874,4.31153 6.05771,2.69503 z m -13.68003,-0.76413 c 4.43322,-2.27971 5.17718,-10.98393 1.28856,-15.07606 -2.32382,-2.44545 -5.73501,1.08985 -6.34927,6.5803 -0.12969,1.15915 -0.34619,2.58572 -0.48112,3.17014 -1.20458,5.21757 1.22033,7.54788 5.54183,5.32562 z m -7.75027,-17.44281 c 4.56195,-2.50376 8.3885,-2.65266 18.45804,-0.71824 13.33716,2.56213 18.67648,-1.3037 12.02244,-8.70458 -2.72477,-3.03061 -5.57404,-3.35864 -15.47748,-1.78191 -6.6084,1.05212 -12.30341,1.14073 -14.71592,0.22898 -2.93582,-1.10956 -4.7807,-0.724 -7.04561,1.47239 -3.87335,3.75614 -1.28276,9.40841 4.81828,10.51281 0.0418,0.008 0.91493,-0.44674 1.94025,-1.00945 z m -29.805216,-12.5438 c -17.963089,-3.04018 -30.224527,-22.99447 -23.040059,-37.49541 2.976286,-6.00725 5.814109,-5.68233 3.367666,0.38558 -7.933033,19.67629 16.427709,41.75397 35.587409,32.25222 18.72197,-9.2847 21.12223,-31.39628 4.45197,-41.01227 -0.98532,-0.56837 -2.42492,-1.40651 -3.19911,-1.86253 -7.00497,-4.12617 -13.737367,-3.9147 -27.256443,0.85611 -4.300123,1.51749 -4.81261,1.66919 -5.438492,1.60987 -0.56231,-0.0533 -0.35503,-0.39071 1.280387,-2.08419 15.027337,-15.56085 47.546458,-4.42358 49.568478,16.97642 1.77008,18.73362 -15.64023,33.70524 -35.321806,30.3742 z m 74.495986,-1.96111 c -22.60291,-2.28046 -36.24682,-23.95498 -25.64708,-40.74254 14.11517,-22.35518 46.62823,-19.40706 55.97101,5.07517 6.93939,18.18431 -9.69406,37.74876 -30.32393,35.66737 z m 10.49732,-5.3299 c 16.25654,-3.23349 22.8508,-21.10732 12.97799,-35.17706 -15.00404,-21.38225 -51.93811,-8.94715 -47.5196,15.99908 2.64131,14.91238 16.71164,22.72444 34.54161,19.17798 z M 154.13966,253.6178 c -7.09734,-1.40714 -8.39776,-10.10331 -2.41203,-16.12981 5.27896,-5.31493 12.78277,-2.25034 15.22728,6.21888 0.76148,2.63818 0.28832,3.00596 -3.62037,2.8141 -4.50798,-0.22128 -4.86669,0.18975 -2.02567,2.32108 2.25223,1.68961 2.92558,2.5493 2.44771,3.1251 -1.17158,1.41167 -6.34421,2.2995 -9.61692,1.65065 z m -72.035118,1.28561 c -6.800905,-1.15191 -8.090217,-7.29802 -2.72275,-12.97927 4.150872,-4.39354 8.801722,-4.81632 12.470995,-1.13366 7.483033,7.51032 1.595285,16.03426 -9.748245,14.11293 z M 27.094669,73.104487 c 0,-0.1909 0.385746,-0.853116 0.857216,-1.471592 1.179265,-1.546963 1.702074,-2.626748 1.702074,-3.515372 0,-0.568311 0.141094,-0.787238 0.57584,-0.893497 12.236585,-2.990813 24.495556,-4.74449 34.358475,-4.915066 60.080246,-1.039065 72.783056,-1.434411 89.703126,-2.7918 4.50103,-0.36109 4.58507,-0.341238 5.64762,1.334233 2.7441,4.327 -1.41169,5.825817 -15.88478,5.728964 -23.11962,-0.154712 -21.52705,-0.08087 -27.4536,-1.272979 -7.80076,-1.569101 -10.24816,-1.461406 -12.63789,0.556111 -0.80639,0.680787 -0.80639,0.680787 -3.4683,-0.209946 -6.613192,-2.212914 -13.183989,-2.255469 -27.460517,-0.177845 -4.926635,0.716957 -10.517164,1.417903 -12.423403,1.557656 -6.640537,0.486838 -13.865371,1.827338 -25.051817,4.648132 -7.218356,1.820195 -8.464044,2.029625 -8.464044,1.423001 z"
       fill="#1b6f95"
       id="path196" />
    <path
       d="M 130.23407,359.58251 C 96.765668,357.73531 80.129798,354.92219 63.633955,348.3204 56.903469,345.62682 57.022502,345.70598 56.320238,343.45672 52.327036,330.66713 47.197176,309.71801 43.07591,289.37009 40.676762,277.52477 39.798897,273.5872 35.249492,254.26545 23.975711,206.38471 20.596211,181.83753 25.278074,181.83753 c 1.108273,0 1.434613,0.94739 3.482224,10.1092 8.251619,36.92089 17.310209,70.85436 24.682092,92.45907 2.08758,6.11806 1.77346,5.65486 3.728433,5.49795 2.073916,-0.16648 2.056715,-0.20423 0.999449,2.19316 -1.87532,4.25231 -0.713781,7.15309 4.902208,12.24252 3.161328,2.86489 3.150868,3.1944 -0.08642,2.72257 -2.562958,-0.37355 -2.521572,-0.41502 -1.882217,1.88543 0.287124,1.03308 1.106235,4.5272 1.820244,7.76471 4.768127,21.61996 9.08186,28.72783 18.627757,30.69357 28.449506,5.85849 64.150406,6.83909 108.313696,2.97507 15.3334,-1.34158 29.40135,-7.52181 32.8831,-14.44594 0.76734,-1.526 0.73374,-1.58934 -0.95477,-1.80031 -2.64678,-0.33068 -2.61153,-0.5288 0.31873,-1.79119 4.37977,-1.88689 5.74104,-3.32688 5.79156,-6.12651 0.023,-1.2724 0.27378,-2.58852 0.81575,-4.28044 1.72328,-5.37973 2.12833,-10.53939 1.63571,-20.83592 -0.37493,-7.83671 -0.28067,-10.99198 0.43217,-14.46703 1.21409,-5.91867 1.81983,-11.21863 2.98273,-26.09773 0.35755,-4.57473 0.9854,-10.85139 1.39522,-13.94813 0.7851,-5.93244 1.16739,-10.28878 1.40369,-15.99557 0.66595,-16.08275 1.15328,-21.82479 2.33347,-27.49408 0.32054,-1.53978 0.53393,-1.94747 1.62093,-3.09681 2.39435,-2.53167 2.31339,-3.84985 -0.49836,-8.11408 -3.33285,-5.05451 -3.3331,-6.8674 -0.002,-10.50982 1.55069,-1.69536 1.64171,-4.70503 0.52352,-17.31208 -0.82896,-9.34619 -0.83287,-15.4248 -0.0101,-15.62289 0.35077,-0.0844 0.77419,-0.42717 0.94093,-0.76161 0.16673,-0.33444 0.48437,-0.70948 0.70585,-0.83343 0.28002,-0.15671 0.40269,-0.60368 0.40269,-1.46725 0,-1.14978 0.057,-1.26175 0.76779,-1.50955 0.42228,-0.1472 0.76779,-0.44886 0.76779,-0.67034 0,-0.22148 0.2734,-0.52727 0.60756,-0.67952 0.73007,-0.33264 1.31795,-1.92138 1.10498,-2.9862 -0.15498,-0.77493 0.17618,-2.23285 1.05847,-4.6598 0.40771,-1.1215 0.54789,-2.36999 0.68968,-6.1423 0.1944,-5.17199 0.37447,-6.8214 1.06174,-9.7253 0.55117,-2.32885 0.56502,-17.85977 0.0213,-23.929367 -0.3393,-3.78796 -7.32837,-5.21068 -12.50258,-2.545069 -0.85402,0.439973 -21.57541,2.896316 -37.59656,4.456748 -16.16229,1.574182 -36.54437,3.069998 -47.60281,3.493518 -2.46331,0.0943 -4.6952,0.24925 -4.95975,0.34425 -0.26455,0.095 -1.07073,0.01 -1.7915,-0.18954 -2.40738,-0.665469 -3.34587,-0.783337 -5.08547,-0.638691 -1.64757,0.136991 -1.72752,0.117861 -1.72752,-0.413372 0,-0.846078 2.45688,-0.726641 -40.180857,-1.953322 C 58.294088,96.512236 34.735402,95.198036 14.426137,93.013571 3.6554693,91.855078 3.7820221,91.84829 4.8206221,93.528779 c 0.7190884,1.16351 2.0478902,2.302333 3.6101031,3.093965 1.5420191,0.7814 1.4614135,1.026066 -0.4152914,1.260543 -1.8460569,0.230651 -1.8252046,0.106638 -0.89092,5.298463 3.3674332,18.71282 8.4379052,22.99311 18.9692542,16.01307 3.487489,-2.31146 19.090677,-5.02001 35.679243,-6.19355 10.384562,-0.73464 27.571037,-1.38962 27.21872,-1.0373 -0.349635,0.34963 -10.057155,1.5267 -24.275536,2.94348 -12.427651,1.23835 -20.36634,2.34841 -25.976798,3.63233 -1.266849,0.2899 -3.301897,0.61634 -4.52233,0.72541 -14.916845,1.33308 -20.603345,18.08594 -6.509387,19.17714 1.563094,0.12102 3.014739,0.28865 3.225881,0.37252 0.211141,0.0839 1.899861,0.43146 3.752713,0.77244 4.76815,0.87747 5.261407,1.2406 3.001211,2.20943 -1.376103,0.58987 -1.376016,0.58628 -0.03579,1.45137 1.723844,1.11272 0.596095,1.01809 -4.034975,-0.33858 -12.922703,-3.78568 -15.678603,-4.06337 -12.5073,-1.26026 1.496961,1.32316 1.420486,1.52133 -0.38306,0.99264 -0.94156,-0.27601 -1.440825,-0.31656 -1.625385,-0.13199 -0.281736,0.28173 0.374475,5.36585 2.235214,17.31773 0.634558,4.07589 -1.765268,-1.9605 -2.701256,-6.79459 -2.919215,-15.07683 -7.536233,-29.44187 -8.803679,-27.3911 -0.5895789,0.95396 1.122661,9.71043 3.710573,18.97604 2.637024,9.44129 3.827535,15.28053 3.827535,18.77315 0,5.83542 -5.705326,-17.02446 -8.4265367,-33.76313 C 8.3707393,126.10898 7.2751659,119.37165 6.5082208,114.65615 4.862854,104.53977 3.6797452,98.519281 2.1326779,92.390328 0.63502964,86.457155 0.69930451,86.681845 0.38557936,86.282893 -0.63432873,84.985919 0.45598132,81.420392 2.6337798,78.930842 7.9122035,72.896811 21.46423,69.080755 21.46423,73.628458 c 0,2.005632 -2.874454,3.379405 -10.365127,4.953753 -7.0219574,1.475835 -7.6402612,2.708128 -3.4969934,6.969588 1.3360226,1.374134 1.8833489,1.580773 8.2316804,3.107807 12.747271,3.066243 25.835964,4.399569 49.138378,5.00566 5.560058,0.144616 13.909743,0.380743 18.554855,0.524727 23.982947,0.743397 50.998527,0.973467 58.735717,0.500208 9.85182,-0.602606 11.69491,-0.621204 12.78634,-0.129035 0.88708,0.400018 1.16545,0.418122 2.15762,0.140331 0.62652,-0.175416 1.28124,-0.231111 1.45492,-0.123769 0.17368,0.107341 1.36325,0.290482 2.64349,0.406978 1.28024,0.116499 2.87026,0.282668 3.53339,0.36927 1.24355,0.162399 3.20462,-0.365249 4.06905,-1.094826 0.32577,-0.27495 0.56699,-0.28606 1.15168,-0.05304 1.44699,0.576677 19.12553,0.395595 24.92489,-0.255307 16.74998,-1.879965 36.55488,-6.448488 43.14368,-9.952231 0.77197,-0.41051 5.85083,-1.642706 9.19381,-2.230537 3.81956,-0.67163 4.86026,-0.91465 6.22155,-1.452835 1.00934,-0.399042 1.43321,-0.462919 1.6478,-0.248331 0.71062,0.710621 0.8477,15.245553 0.18742,19.873365 -0.14058,0.985326 -0.4876,3.691776 -0.77116,6.014336 -0.28355,2.32255 -1.02913,6.75652 -1.65685,9.85326 -0.94954,4.68449 -2.36518,13.05261 -2.83586,16.76336 -2.08656,16.45025 -3.54474,34.44475 -5.09144,62.83058 -1.89532,34.78383 -2.5824,44.6234 -4.34271,62.19076 -0.33852,3.37826 -0.68943,7.35156 -0.77982,8.82955 -0.63411,10.36917 -2.38873,24.90405 -5.25882,43.56291 -0.85244,5.54184 -1.01231,7.2075 -1.01231,10.54704 0,17.74464 -6.39379,27.50743 -19.20496,29.32438 -1.04803,0.14864 -2.98566,0.61625 -4.30586,1.03915 -13.74489,4.40287 -33.81197,7.17878 -58.13055,8.04126 -2.32255,0.0824 -5.54726,0.25652 -7.16601,0.38702 -4.27136,0.3443 -10.90505,0.46192 -14.58796,0.25867 z m -0.85515,-3.34477 c 2.59403,-0.98625 -1.55071,-1.75352 -13.74365,-2.54424 -2.18776,-0.14186 -5.95396,-0.48383 -8.36932,-0.75993 -10.59623,-1.21116 -17.203371,-1.23519 -14.997232,-0.0545 3.657497,1.95743 33.654932,4.67235 37.110202,3.35866 z M 68.299245,343.19716 c 0,-4.48111 -8.646235,-32.85226 -11.67872,-38.32174 -3.354864,-6.05093 -0.172765,12.73595 4.085638,24.12131 3.29158,8.80046 7.593082,16.84502 7.593082,14.20043 z m -7.90324,-2.66855 c 0.119481,-6.06278 -0.593381,-9.38822 -4.776278,-22.2809 -2.931404,-9.03527 -3.707281,-11.76017 -4.471864,-15.70529 -0.671652,-3.46561 -1.008724,-3.83934 -2.260726,-2.50665 -1.691374,1.80039 -1.362489,4.64038 1.743409,15.0547 1.832903,6.1459 2.386434,8.42956 2.68831,11.09104 0.506509,4.46561 4.077205,14.23503 5.96946,16.33245 0.636959,0.706 1.069942,-0.07 1.107689,-1.98535 z M 48.437362,295.19316 c 1.063759,-2.77212 -0.335546,-11.74348 -3.723773,-23.87429 -2.254857,-8.073 -3.052422,-11.29361 -3.64977,-14.73798 -0.647933,-3.73603 -2.561564,-7.18634 -3.07992,-5.55314 -0.284636,0.89681 3.069859,19.77455 4.32722,24.35185 0.212667,0.77418 0.683879,3.76855 1.047142,6.65415 1.269108,10.08123 3.771944,16.56583 5.079101,13.15941 z m 57.227528,23.77366 c -2.59651,-0.19665 -8.704773,-1.2194 -14.971853,-2.50682 -7.948002,-1.63273 -10.856244,-2.10036 -15.611672,-2.51021 -3.583007,-0.3088 -3.583007,-0.3088 -3.658263,-1.07659 -0.256023,-2.61199 2.457531,-2.61823 11.20893,-0.0257 6.650585,1.97014 8.570977,2.44345 10.620295,2.61756 0.985327,0.0837 2.655264,0.37166 3.710971,0.63987 2.056843,0.52254 6.981932,1.22232 13.180342,1.87274 5.34993,0.56138 6.01192,0.67563 5.37451,0.92756 -0.49471,0.19553 -7.50627,0.23937 -9.85326,0.0616 z m 23.16158,-11.63563 c -3.24249,-1.67488 -4.33238,-3.98715 -5.11024,-10.84175 -0.59656,-5.25698 -1.09822,-6.90916 -2.60396,-8.57582 -1.1305,-1.25134 -2.97469,-2.2458 -4.57033,-2.4645 -5.71357,-0.78314 -2.0451,-9.45665 7.29391,-17.24529 1.75951,-1.46742 3.96213,-3.38074 4.89471,-4.25185 1.98948,-1.85835 2.59202,-2.02814 7.00599,-1.97434 10.99954,0.13406 22.52145,9.06782 26.21827,20.32891 0.99196,3.02167 1.04343,2.94584 -4.39146,6.46993 -6.10489,3.95856 -7.44559,6.43199 -6.32319,11.66553 1.13042,5.27096 -2.78135,7.54254 -9.48929,5.51049 -4.75839,-1.44145 -8.68719,-0.98889 -10.29509,1.18592 -0.64665,0.87464 -1.22686,0.91717 -2.62932,0.19277 z m 16.94378,-2.90907 c 7.1477,-2.98652 4.77476,-18.28849 -2.62091,-16.90107 -4.29226,0.80523 -5.02027,13.74646 -0.92429,16.43026 1.32892,0.87072 2.28436,0.99761 3.5452,0.47081 z m -12.98624,-1.18705 c 4.77577,-2.0511 5.63599,-11.83219 1.37002,-15.57776 -2.05528,-1.80456 -5.42283,1.09494 -6.08932,5.24296 -0.0688,0.42804 -0.3574,2.17882 -0.64138,3.89061 -1.1274,6.79573 0.36496,8.58972 5.36068,6.44419 z m -7.33655,-17.59996 c 4.36728,-2.38178 8.21346,-2.54629 17.50279,-0.74859 9.28676,1.79718 15.68951,1.03252 15.4828,-1.84907 -0.21281,-2.96667 -1.49261,-6.0529 -3.09253,-7.45764 -3.06903,-2.69465 -5.6413,-2.81008 -18.45229,-0.82806 -5.14687,0.79627 -10.39072,0.46428 -12.86343,-0.81439 -1.54292,-0.79789 -5.2933,1.04334 -6.6646,3.27195 -3.12249,5.07459 2.84054,11.28724 8.08726,8.4258 z M 96.345166,272.81025 C 77.152942,269.79254 64.208608,247.69779 73.655948,234.0819 c 2.797174,-4.03139 3.875382,-3.07632 1.986495,1.75964 -8.019948,20.53282 16.563037,42.20734 36.425577,32.11601 18.88157,-9.59294 20.22873,-31.87803 2.51568,-41.61509 -1.17518,-0.64601 -2.71253,-1.50616 -3.41634,-1.91145 -5.89598,-3.39517 -13.378521,-2.82045 -27.084604,2.08032 -4.658068,1.66555 -4.767644,1.6069 -2.027325,-1.08522 9.974676,-9.79923 29.835319,-8.39611 41.047259,2.89992 18.21393,18.35052 -0.0332,48.68627 -26.757524,44.48422 z m 74.325694,-2.07236 c -21.44707,-1.82127 -35.6106,-21.5073 -27.31863,-37.97048 12.90386,-25.61982 49.59896,-21.63405 57.58905,6.25525 4.50659,15.73014 -12.21378,33.24858 -30.27042,31.71523 z m 3.89257,-4.36362 c 22.0881,0.63353 31.64756,-24.15975 15.42463,-40.00509 -11.60575,-11.33562 -34.70804,-7.89826 -42.07405,6.26013 -7.92247,15.228 4.54938,34.99814 21.34924,33.84242 1.40761,-0.0968 3.79269,-0.14068 5.30018,-0.0975 z m -21.22254,-13.11993 c -5.49487,-1.71728 -6.92813,-7.81953 -3.19368,-13.59744 4.80975,-7.44162 13.31224,-5.71075 16.4276,3.34421 1.10026,3.19797 0.75739,3.58863 -2.92914,3.33736 -4.63657,-0.31603 -5.5173,0.36701 -2.89206,2.24292 3.09413,2.21095 3.64687,3.16471 2.25207,3.88599 -2.08426,1.07782 -7.35966,1.50737 -9.66479,0.78696 z m -69.557937,1.66231 c -6.870541,-0.67242 -9.254113,-4.28466 -6.508033,-9.86274 3.160877,-6.42065 10.30711,-8.5085 14.536614,-4.24703 6.907625,6.95984 2.265955,15.11731 -8.028581,14.10977 z M 27.23805,73.220592 c -0.07852,-0.127041 0.371136,-0.914614 0.999227,-1.750161 1.222839,-1.626736 1.672611,-2.567127 1.672611,-3.497124 0,-0.555456 0.297866,-0.643303 6.462209,-1.905863 17.400137,-3.563827 14.914104,-3.382481 56.496337,-4.121179 31.714366,-0.563395 48.453006,-1.195002 62.183376,-2.346396 3.73549,-0.313247 4.71996,0.137145 5.35018,2.44769 1.03439,3.792336 -1.97529,4.375898 -22.23412,4.311086 -17.22397,-0.0551 -14.4826,0.151656 -25.08104,-1.891628 -4.43591,-0.855202 -7.52512,-0.418996 -9.06117,1.279456 -0.61896,0.684408 -0.86076,0.676623 -3.00469,-0.09674 -3.835809,-1.383652 -6.540127,-1.767361 -12.375365,-1.755911 -5.590791,0.01098 -6.275685,0.08046 -18.298927,1.856571 -2.8856,0.42627 -6.801315,0.896588 -8.701588,1.04515 -8.246387,0.644706 -16.795848,2.266812 -29.658865,5.62724 -4.21542,1.101268 -4.52815,1.153815 -4.748175,0.797805 z"
       fill="#0c0e0e"
       id="path198" />
  </g>
</svg>
