<?xml version="1.0" encoding="UTF-8" standalone="no"?>
<svg
   id="Layer_1"
   data-name="Layer 1"
   viewBox="0 0 120.18197 257.07626"
   version="1.1"
   width="120.18197"
   height="257.07626"
   xmlns="http://www.w3.org/2000/svg"
   xmlns:svg="http://www.w3.org/2000/svg">
  <defs
     id="defs7" />
  <path
     d="m 82.464705,28.675591 c -10.8147,-12.762 -20.13269,-25.8139 -22.02478,-28.49223999 a 0.426,0.426 0 0 0 -0.70032,6e-5 C 57.847885,2.861811 48.532025,15.913631 37.717695,28.675591 -54.973715,146.76059 52.347515,226.43066 52.347515,226.43066 l 0.87,0.60461 c 0.8136,12.32624 2.83508,30.041 2.83508,30.041 h 8.0768 c 0,0 2.01282,-17.63849 2.83,-29.96106 l 0.87549,-0.68451 c 0,0 107.320245,-79.67008 14.62982,-197.755109 z M 60.091395,224.69928 h -10e-4 c 0,0 -4.811,-4.10383 -6.10962,-6.16 l -0.0117,-0.22131 5.81946,-128.560549 a 0.30281,0.30281 0 0 1 0.605,0 l 5.81946,128.560359 -0.0113,0.22065 c -1.29771,2.05587 -6.11023,6.16085 -6.11023,6.16085 z"
     fill="#00ed64"
     id="path2" />
</svg>
