<?xml version="1.0" encoding="UTF-8" standalone="no"?>
<svg
   viewBox="0 0 16.05364 20.000048"
   fill="none"
   role="presentation"
   class="css-1r6i2mo e1skfx025"
   version="1.1"
   id="svg8"
   sodipodi:docname="storybook.svg"
   width="16.05364"
   height="20.000048"
   inkscape:version="1.2.2 (b0a8486541, 2022-12-01)"
   xmlns:inkscape="http://www.inkscape.org/namespaces/inkscape"
   xmlns:sodipodi="http://sodipodi.sourceforge.net/DTD/sodipodi-0.dtd"
   xmlns="http://www.w3.org/2000/svg"
   xmlns:svg="http://www.w3.org/2000/svg">
  <defs
     id="defs12" />
  <sodipodi:namedview
     id="namedview10"
     pagecolor="#ffffff"
     bordercolor="#000000"
     borderopacity="0.25"
     inkscape:showpageshadow="2"
     inkscape:pageopacity="0.0"
     inkscape:pagecheckerboard="0"
     inkscape:deskcolor="#d1d1d1"
     showgrid="false"
     showguides="false"
     inkscape:zoom="13.07"
     inkscape:cx="49.961744"
     inkscape:cy="10.022953"
     inkscape:window-width="3440"
     inkscape:window-height="1371"
     inkscape:window-x="0"
     inkscape:window-y="0"
     inkscape:window-maximized="1"
     inkscape:current-layer="svg8" />
  <path
     d="M 0.6206398,18.43004 6.398031e-4,1.9200399 A 1.006,1.006 0 0 1 0.9446398,0.88003992 l 14.0400002,-0.878 a 1.005,1.005 0 0 1 1.069,1.00399998 V 18.99504 a 1.006,1.006 0 0 1 -1.051,1.004 l -13.4220002,-0.603 a 1.006,1.006 0 0 1 -0.96,-0.967 z"
     fill="#ff4785"
     id="path4" />
  <path
     fill-rule="evenodd"
     clip-rule="evenodd"
     d="m 13.88064,0.07103992 -1.932,0.12 -0.094,2.26699998 a 0.15,0.15 0 0 0 0.24,0.126 l 0.88,-0.668 0.744,0.586 a 0.15,0.15 0 0 0 0.243,-0.123 l -0.08,-2.30799998 z m -1.504,7.58999998 c -0.353,0.275 -2.9890002,0.462 -2.9890002,0.071 0.056,-1.493 -0.612,-1.558 -0.984,-1.558 -0.352,0 -0.946,0.106 -0.946,0.906 0,0.815 0.868,1.275 1.887,1.815 1.4470002,0.767 3.2000002,1.6960001 3.2000002,4.0320001 0,2.24 -1.82,3.476 -4.1400002,3.476 -2.395,0 -4.488,-0.969 -4.252,-4.328 0.093,-0.394 3.138,-0.3 3.138,0 -0.038,1.386 0.278,1.794 1.076,1.794 0.613,0 0.891,-0.338 0.891,-0.906 0,-0.861 -0.904,-1.369 -1.945,-1.953 -1.409,-0.791 -3.067,-1.7220001 -3.067,-3.8590001 0,-2.132 1.466,-3.554 4.084,-3.554 2.6180002,0 4.0470002,1.4 4.0470002,4.064 z"
     fill="#ffffff"
     id="path6" />
</svg>
